<svg width="60" height="60" viewBox="0 0 60 60" fill="none" xmlns="http://www.w3.org/2000/svg">
<g clip-path="url(#clip0_61_1814)">
<path d="M32.1017 8.13574C29.6041 8.13574 27.3586 9.65812 26.4343 11.9777L19.8302 28.5408C17.96 29.9188 16.7793 32.1316 16.7793 34.5764V40.4859C16.7793 44.1785 19.3084 47.39 22.8973 48.2564C26.6997 49.1116 30.5447 49.729 34.4082 50.1601L35.4475 44.9655C35.8279 43.0638 37.4977 41.6951 39.436 41.6951H53.1048C55.0442 41.6951 56.7129 43.0639 57.0933 44.9655L58.1316 50.1571C58.5842 50.1062 59.0388 50.0736 59.4903 50.0167V25.3293V8.13574H32.1017Z" fill="#B02721"/>
<path d="M27.3149 26.2939L22.7539 27.2376C19.2749 27.9576 16.7793 31.0226 16.7793 34.5759V40.4854C16.7793 44.178 19.3084 47.3895 22.8973 48.2559C26.6997 49.1111 30.5447 49.7285 34.4082 50.1596L35.4475 44.965C35.8279 43.0633 37.4977 41.6945 39.436 41.6945H53.1048C55.0442 41.6945 56.7129 43.0634 57.0933 44.965L58.1316 50.1565C58.5842 50.1057 59.0388 50.0731 59.4903 50.0162V25.3287C48.7827 23.843 37.8962 24.1592 27.3149 26.2939Z" fill="#2D9596"/>
<path d="M46.2709 53.8979C45.7095 53.8979 45.2539 53.4423 45.2539 52.8809V50.847C45.2539 50.2857 45.7095 49.8301 46.2709 49.8301C46.8322 49.8301 47.2878 50.2857 47.2878 50.847V52.8809C47.2878 53.4423 46.8323 53.8979 46.2709 53.8979Z" fill="#A7B9D0"/>
<path d="M51.3558 53.8979C50.7945 53.8979 50.3389 53.4422 50.3389 52.8809V50.7259C50.3389 50.1646 50.7945 49.709 51.3558 49.709C51.9171 49.709 52.3728 50.1646 52.3728 50.7259V52.8809C52.3728 53.4422 51.9171 53.8979 51.3558 53.8979Z" fill="#A7B9D0"/>
<path d="M56.4408 53.8977C55.8795 53.8977 55.4238 53.4421 55.4238 52.8808V50.3597C55.4238 49.7984 55.8795 49.3428 56.4408 49.3428C57.0021 49.3428 57.4577 49.7984 57.4577 50.3597V52.8808C57.4577 53.4421 57.0021 53.8977 56.4408 53.8977Z" fill="#A7B9D0"/>
<path d="M41.1869 53.8979C40.6255 53.8979 40.1699 53.4423 40.1699 52.8809V50.724C40.1699 50.1627 40.6255 49.707 41.1869 49.707C41.7482 49.707 42.2038 50.1627 42.2038 50.724V52.8809C42.2038 53.4423 41.7482 53.8979 41.1869 53.8979Z" fill="#A7B9D0"/>
<path d="M36.1019 53.8976C35.5406 53.8976 35.085 53.442 35.085 52.8806V50.3617C35.085 49.8004 35.5406 49.3447 36.1019 49.3447C36.6632 49.3447 37.1189 49.8004 37.1189 50.3617V52.8806C37.1189 53.442 36.6632 53.8976 36.1019 53.8976Z" fill="#A7B9D0"/>
<path d="M7.6273 59.9997C7.06598 59.9997 6.61035 59.5441 6.61035 58.9828V16.2709C6.61035 15.7095 7.06598 15.2539 7.6273 15.2539C8.18863 15.2539 8.64426 15.7095 8.64426 16.2709V58.9828C8.64426 59.5441 8.18863 59.9997 7.6273 59.9997Z" fill="#A7B9D0"/>
<path d="M12.7122 16.2711H2.5427C1.41898 16.2711 0.508789 15.3609 0.508789 14.2372V2.03391C0.508789 0.910196 1.41898 0 2.5427 0H12.7122C13.8359 0 14.7461 0.910196 14.7461 2.03391V14.2373C14.7461 15.3611 13.8359 16.2711 12.7122 16.2711Z" fill="#FFC042"/>
<path d="M5.59313 13.2203C5.0318 13.2203 4.57617 12.7647 4.57617 12.2034V4.06773C4.57617 3.50641 5.0318 3.05078 5.59313 3.05078C6.15445 3.05078 6.61008 3.50641 6.61008 4.06773V12.2034C6.61008 12.7647 6.15445 13.2203 5.59313 13.2203Z" fill="white"/>
<path d="M8.64398 9.1525H5.59313C5.0318 9.1525 4.57617 8.69688 4.57617 8.13555V4.06773C4.57617 3.50641 5.0318 3.05078 5.59313 3.05078H8.64398C10.326 3.05078 11.6948 4.41965 11.6948 6.10164C11.6948 7.78363 10.326 9.1525 8.64398 9.1525ZM6.61008 7.11859H8.64398C9.20438 7.11859 9.66094 6.66203 9.66094 6.10164C9.66094 5.54125 9.20438 5.08469 8.64398 5.08469H6.61008V7.11859Z" fill="white"/>
<path d="M22.8976 48.2565C21.2715 47.8639 19.8671 46.9874 18.8135 45.8057V56.9494C18.8135 58.0731 19.7246 58.9833 20.8474 58.9833H28.983C30.1057 58.9833 31.0169 58.0731 31.0169 56.9494V49.7463C28.2956 49.3538 25.5864 48.8616 22.8976 48.2565Z" fill="#363F4D"/>
<path d="M58.1388 50.1858L57.0945 44.9658C56.7141 43.0641 55.0453 41.6953 53.106 41.6953H39.4362C37.4968 41.6953 35.8281 43.0642 35.4477 44.9658L34.4033 50.1858C42.2866 51.0664 50.2555 51.0664 58.1388 50.1858Z" fill="#F0F0F0"/>
<path d="M31.7881 37.1083L30.5129 37.5333C30.1794 37.6442 29.8203 37.6584 29.4787 37.5729L23.2661 35.8634C22.3081 35.6234 21.7072 34.6745 21.9003 33.7054L22.242 31.9959C22.4292 31.0623 23.2936 30.4226 24.2403 30.5182L31.3864 31.4356C32.3321 31.5302 33.0522 32.3264 33.0522 33.2762V35.3528C33.0532 36.1493 32.5427 36.8561 31.7881 37.1083Z" fill="#F0F0F0"/>
<path d="M24.9149 40.6779L16.7793 39.3223V40.4857C16.7793 41.4122 16.9389 42.3081 17.2339 43.144L26.9488 44.7457L24.9149 40.6779Z" fill="#1C7879"/>
<path d="M34.0665 9.15253C33.914 9.15253 33.7584 9.11796 33.613 9.04577C33.1106 8.79464 32.9072 8.18339 33.1585 7.681L34.1754 5.6471C34.4265 5.14471 35.0358 4.93929 35.5402 5.19253C36.0426 5.44366 36.2459 6.05491 35.9947 6.55729L34.9778 8.5912C34.7987 8.9471 34.4398 9.15253 34.0665 9.15253Z" fill="#E7ECED"/>
<path d="M46.2709 9.15223C45.7095 9.15223 45.2539 8.6966 45.2539 8.13527V2.03355C45.2539 1.47223 45.7095 1.0166 46.2709 1.0166C46.8322 1.0166 47.2878 1.47223 47.2878 2.03355V8.13527C47.2878 8.6966 46.8323 9.15223 46.2709 9.15223Z" fill="#363F4D"/>
<path d="M22.6949 21.3555H18.8132C17.6905 21.3555 16.7793 22.2657 16.7793 23.3894C16.7793 24.5131 17.6904 25.4233 18.8132 25.4233H21.0728L22.6949 21.3555Z" fill="#363F4D"/>
<path d="M53.5289 37.6272H39.013C37.9341 37.6272 37.028 36.8157 36.9089 35.7437L36.3628 30.8257C36.2235 29.5718 37.2048 28.4746 38.4669 28.4746H54.075C55.337 28.4746 56.3184 29.572 56.1791 30.8257L55.633 35.7437C55.5139 36.8157 54.6069 37.6272 53.5289 37.6272Z" fill="#F0F0F0"/>
<path d="M59.4911 8.13574H32.1016C29.604 8.13574 27.3586 9.65812 26.4342 11.9777L19.8301 28.5408C20.6782 27.9153 21.6688 27.4628 22.7538 27.2381L27.3148 26.2944C37.8962 24.1598 48.7827 23.8425 59.4911 25.3283V8.13574Z" fill="#1C7879"/>
<path d="M59.4913 12.2031H32.1018C31.2648 12.2031 30.5225 12.7055 30.2123 13.4835L26.7109 22.267C33.1207 20.9876 39.6933 20.3389 46.2496 20.3389C50.6662 20.3389 55.095 20.6399 59.4913 21.2247V12.2031Z" fill="#F0F0F0"/>
<path d="M31.0169 49.8486C30.8226 49.8486 30.6264 49.8852 30.4525 50.0012L27.1434 52.207C25.7898 53.109 24.0407 53.1101 22.686 52.207L19.3769 50.0012C19.203 49.8853 19.0067 49.8486 18.8125 49.8486V52.0697L21.5573 53.9002C22.5762 54.5795 23.7457 54.9191 24.9142 54.9191C26.0827 54.9191 27.2512 54.5795 28.2712 53.9002L31.0159 52.0697V49.8486H31.0169Z" fill="#AFB6BB"/>
<path d="M53.6876 16.5692L50.5096 19.7472C50.3205 19.9363 50.2279 20.1814 50.2188 20.4285C51.0079 20.46 51.7961 20.4977 52.5842 20.5485L55.1255 18.0081C55.5231 17.6105 55.5231 16.9677 55.1255 16.5701C54.7279 16.1726 54.0852 16.1716 53.6876 16.5692Z" fill="#363F4D"/>
<path d="M42.5013 16.5687L39.2532 19.8168C39.0366 20.0334 38.9491 20.3223 38.9684 20.6049C39.8095 20.5439 40.6504 20.494 41.4925 20.4534L43.9393 18.0066C44.3369 17.609 44.3369 16.9662 43.9393 16.5686C43.5417 16.1711 42.8989 16.1711 42.5013 16.5687Z" fill="#363F4D"/>
<path d="M41.1863 28.4746H39.1523V37.6272H41.1863V28.4746Z" fill="#A7B9D0"/>
<path d="M45.2536 28.4746H43.2197V37.6272H45.2536V28.4746Z" fill="#A7B9D0"/>
<path d="M49.322 28.4746H47.2881V37.6272H49.322V28.4746Z" fill="#A7B9D0"/>
<path d="M53.3894 28.4746H51.3555V37.6272H53.3894V28.4746Z" fill="#A7B9D0"/>
</g>
<defs>
<clipPath id="clip0_61_1814">
<rect width="60" height="60" fill="white"/>
</clipPath>
</defs>
</svg>
