<svg width="60" height="60" viewBox="0 0 60 60" fill="none" xmlns="http://www.w3.org/2000/svg">
<g clip-path="url(#clip0_61_1742)">
<path d="M18.2698 22.1982H19.1562V22.8139C19.1562 26.1557 21.6309 29.9529 24.6936 31.8187L24.6933 34.9069C24.6933 35.1968 24.5043 35.453 24.2271 35.5384L20.3311 37.6148L20.8402 38.1246C25.8789 43.1711 34.124 43.1709 39.1626 38.1244L39.6709 37.6152L35.7721 35.5386C35.4951 35.453 35.3061 35.197 35.3061 34.907L35.3058 31.7938C38.3702 29.9273 40.8435 26.1336 40.8435 22.7903V22.1984H41.7298C42.5691 22.1984 43.2496 21.518 43.2496 20.6786V17.7019C43.2483 17.2486 42.8805 16.8818 42.4271 16.8818H17.5725C17.1193 16.8818 16.7514 17.2486 16.75 17.7019V20.6786C16.75 21.5178 17.4304 22.1982 18.2698 22.1982Z" fill="#FED9A8"/>
<path d="M19.1572 22.8143C19.1572 26.9476 22.9426 31.7793 26.9447 32.7884C29.5451 33.444 30.3059 33.4485 32.9084 32.8013L33.0272 32.7717C37.0432 31.7732 40.8432 26.9347 40.8432 22.7905V15.0557H19.1572V22.8143Z" fill="#FED9A8"/>
<path d="M19.1572 22.8143C19.1572 26.9476 22.9426 31.7793 26.9447 32.7884C29.5451 33.444 30.3059 33.4485 32.9084 32.8013L33.0272 32.7717C37.0432 31.7732 40.8432 26.9347 40.8432 22.7905V15.0557H19.1572V22.8143Z" fill="#FED9A8"/>
<path d="M35.4256 15.0557V24.6166C35.4256 27.7603 33.2384 31.3017 30.4297 33.2652C31.1182 33.2152 31.8652 33.0607 32.9084 32.8013L33.0273 32.7717C37.0433 31.7732 40.8433 26.9347 40.8433 22.7905V15.0557H35.4256Z" fill="#F4C892"/>
<path d="M53.4944 40.6956L40.776 36.2006C40.5188 36.1097 40.2324 36.1748 40.0395 36.368L39.1611 37.2478C34.1225 42.2942 25.8775 42.2942 20.8389 37.2478L19.9604 36.368C19.7675 36.1748 19.4811 36.1097 19.2238 36.2006L6.50547 40.6956C3.1252 41.8903 0.783558 44.9908 0.555745 48.5737L0.00402646 57.1948C-0.0675751 58.3207 0.824925 59.2733 1.95133 59.2733H29.8725H30.1274H58.0486C59.175 59.2733 60.0675 58.3207 59.9959 57.1948L59.4442 48.5737C59.2163 44.9907 56.8748 41.8902 53.4944 40.6956Z" fill="#FFC042"/>
<path d="M44.5581 51.5952H38.4659C37.8602 51.5952 37.3691 51.1042 37.3691 50.4985V48.8136C37.3691 48.2078 37.8602 47.7168 38.4659 47.7168H44.5581C45.1639 47.7168 45.6549 48.2078 45.6549 48.8136V50.4985C45.655 51.1041 45.1639 51.5952 44.5581 51.5952Z" fill="#E1EFFB"/>
<path d="M42.5412 11.1511C42.5412 5.39379 37.874 0.726562 32.1167 0.726562H27.8835C22.1262 0.726562 17.459 5.39379 17.459 11.1511V15.6811H17.462C17.461 15.6814 17.46 15.6817 17.459 15.6819L18.5948 17.732C19.2951 18.996 20.6262 19.7803 22.0714 19.7803H37.9288C39.3739 19.7803 40.7051 18.996 41.4053 17.732L42.5411 15.6819C42.54 15.6816 42.5391 15.6813 42.538 15.6811H42.5411L42.5412 11.1511Z" fill="#2D9596"/>
<path d="M42.541 11.1511C42.541 5.39379 37.8738 0.726562 32.1164 0.726562H27.8833C27.6844 0.726562 27.4871 0.732656 27.291 0.743672C32.7727 1.05082 37.1233 5.59266 37.1233 11.1511V15.6811H37.1202C37.1213 15.6813 37.1222 15.6817 37.1233 15.6819L35.9875 17.732C35.2872 18.996 33.9561 19.7803 32.511 19.7803H37.9287C39.3737 19.7803 40.705 18.996 41.4052 17.732L42.541 15.6819C42.5399 15.6817 42.539 15.6813 42.5379 15.6811H42.541V11.1511Z" fill="#1C7879"/>
<path d="M37.9288 19.7806H22.0712C20.6262 19.7806 19.295 18.9962 18.5948 17.7323L17.459 15.6822C25.6555 13.339 34.3445 13.339 42.5411 15.6822L41.4053 17.7323C40.705 18.9962 39.3739 19.7806 37.9288 19.7806Z" fill="#1C7879"/>
<path d="M59.9959 57.1948L59.4442 48.5737C59.2164 44.9908 56.8748 41.8903 53.4945 40.6956L40.7761 36.2006C40.5189 36.1097 40.2325 36.1748 40.0396 36.368L39.1611 37.2478C39.0873 37.3216 39.0129 37.3941 38.9379 37.4657L48.0768 40.6956C51.4571 41.8902 53.7987 44.9908 54.0265 48.5737L54.5782 57.1948C54.5784 57.1958 54.5784 57.1967 54.5785 57.1978C54.5886 57.3612 54.4523 57.4969 54.2886 57.4969H50.7719V47.1655C50.7719 46.6705 50.3706 46.2692 49.8756 46.2692C49.3806 46.2692 48.9794 46.6705 48.9794 47.1655V57.4969H30.1274H29.8725H11.0206V47.1655C11.0206 46.6705 10.6193 46.2692 10.1243 46.2692C9.62934 46.2692 9.22809 46.6705 9.22809 47.1655V57.4969H1.95133C1.05391 57.4969 0.306839 56.8916 0.075628 56.0764L0.00402646 57.1948C-0.0675751 58.3207 0.824925 59.2733 1.95133 59.2733H9.22797H11.0206H29.8725H30.1274H48.9793H50.7719H58.0485C59.175 59.2732 60.0675 58.3207 59.9959 57.1948Z" fill="#D69F33"/>
<path d="M27.1943 2.52422C27.1943 2.27719 27.4178 2.05371 27.7708 2.05371H30.1353C31.6292 2.05371 32.8056 2.77125 32.8056 4.70051V4.77105C32.8056 6.70031 31.594 7.44141 30.0412 7.44141H28.7236V10.1706C28.7236 10.4882 28.3354 10.6529 27.959 10.6529C27.5709 10.6529 27.1943 10.4883 27.1943 10.1706V2.52422ZM28.7235 3.39469V6.24141H30.0411C30.8057 6.24141 31.2763 5.80617 31.2763 4.88859V4.74738C31.2763 3.8298 30.8058 3.39457 30.0411 3.39457L28.7235 3.39469Z" fill="white"/>
</g>
<defs>
<clipPath id="clip0_61_1742">
<rect width="60" height="60" fill="white"/>
</clipPath>
</defs>
</svg>
