<svg width="60" height="60" viewBox="0 0 60 60" fill="none" xmlns="http://www.w3.org/2000/svg">
<path d="M16.8164 33.6328C16.8164 40.4154 22.3608 45.9375 29.1211 45.9375L32.6367 52.9688L29.1211 60C14.717 60 2.75391 48.3253 2.75391 33.6328C2.75391 19.0781 14.5664 7.26562 29.1211 7.26562V21.3281C22.3359 21.3281 16.8164 26.8477 16.8164 33.6328Z" fill="#2D9596"/>
<path d="M55.4883 31.875V33.6328C55.4883 48.3239 43.5268 60 29.1211 60V45.9375C35.8727 45.9375 41.4258 40.425 41.4258 33.6328V31.875H55.4883Z" fill="#1C7879"/>
<path d="M39.668 14.2969H34.3945V28.3594H39.668V14.2969Z" fill="#F9DDA7"/>
<path d="M48.457 7.26562H43.1836V28.3594H48.457V7.26562Z" fill="#FFC042"/>
<path d="M57.2461 0H51.9727V28.3594H57.2461V0Z" fill="#E4A72D"/>
</svg>
