<svg width="148" height="241" viewBox="0 0 148 241" fill="none" xmlns="http://www.w3.org/2000/svg">
<path d="M51.8543 176.26C53.0489 176.858 53.8026 177.777 54.4433 178.895C59.7851 188.225 66.6161 196.271 74.9807 203.051C84.8878 211.081 95.286 218.211 107.348 222.723C113.677 225.092 120.056 227.231 126.651 228.703C127.401 228.871 128.452 228.759 128.685 229.676C128.986 230.849 127.761 231.09 127.081 231.6C125.345 232.902 123.479 234.039 121.824 235.438C120.577 236.492 120.287 238.519 120.993 239.487C121.956 240.813 123.22 240.271 124.423 239.926C124.971 239.772 125.522 239.604 126.054 239.4C132.028 237.107 137.99 234.783 143.978 232.519C146.217 231.67 147.67 230.217 147.865 227.787C148.058 225.406 146.608 224.02 144.695 222.939C138.033 219.161 131.39 215.348 124.726 211.563C123.834 211.057 122.901 210.598 121.937 210.263C120.93 209.914 119.85 209.872 119.126 210.853C118.383 211.859 118.82 212.836 119.516 213.661C120.174 214.445 120.977 215.109 121.651 215.882C122.375 216.703 123.494 217.201 123.84 218.436C122.717 218.997 121.804 218.403 120.864 218.133C108.084 214.449 96.4545 208.452 85.8531 200.468C79.2651 195.506 72.9498 190.234 68.0321 183.508C67.6058 182.922 66.7429 182.427 67.4235 181.335C71.4699 181.76 75.568 181.951 79.6839 181.844C103.288 181.221 118.373 159.891 115.017 139.878C114.314 135.687 113.528 131.5 111.871 127.608C107.542 117.455 100.302 109.962 89.8788 106.245C70.1024 99.2004 52.0253 114.453 47.309 127.669C43.7458 137.643 43.9326 147.868 46.2357 158.111C46.6026 159.747 47.3738 161.303 47.3882 163.195C46.2962 163.192 45.8578 162.796 45.4125 162.457C38.7236 157.353 32.8788 151.422 28.2579 144.378C17.8762 128.546 11.5339 111.109 8.53577 92.4993C6.55983 80.2456 6.87011 67.8526 8.20322 55.5393C9.94952 39.5122 14.5505 24.4127 23.6044 10.8852C25.7878 7.61986 28.1749 4.56634 32.1551 3.33377C32.9166 3.09806 33.8958 2.96058 33.698 1.89153C33.4847 0.742802 32.4429 0.723201 31.5045 0.762291C30.4536 0.803323 29.5041 1.20061 28.5645 1.63391C26.3478 2.65809 24.4714 4.14382 22.8618 5.95315C15.4424 14.2938 10.2371 23.9323 7.08844 34.5667C0.0862073 58.2445 -1.31273 82.2797 4.03705 106.447C7.84882 123.687 14.3255 139.888 25.3145 153.965C32.5682 163.263 41.2213 170.961 51.8543 176.26ZM58.9071 167.995C54.6096 157.966 52.2005 147.679 53.4758 136.644C54.8499 124.748 64.9434 114.079 76.7199 112.516C83.3169 111.64 89.2294 113.494 94.3582 117.531C99.962 121.943 104.039 127.493 105.705 134.605C107.017 140.21 107.904 145.816 106.56 151.552C105.979 154.027 104.979 156.314 103.845 158.115C98.7222 167.314 91.2719 172.286 81.137 173.152C75.0457 173.672 69.0513 173.254 63.1503 171.594C61.1592 171.035 59.7603 169.978 58.9071 167.995Z" fill="#1F2148"/>
</svg>
