<svg width="194" height="194" viewBox="0 0 194 194" fill="none" xmlns="http://www.w3.org/2000/svg">
<g filter="url(#filter0_d_4_274)">
<g filter="url(#filter1_ii_4_274)">
<rect x="134.537" y="7.05957" width="100" height="100" rx="17.6087" transform="rotate(77.1015 134.537 7.05957)" fill="url(#paint0_linear_4_274)"/>
<rect x="134.537" y="7.05957" width="100" height="100" rx="17.6087" transform="rotate(77.1015 134.537 7.05957)" fill="url(#paint1_linear_4_274)" fill-opacity="0.2" style="mix-blend-mode:soft-light"/>
</g>
<g clip-path="url(#clip0_4_274)">
<path d="M120.234 71.6517L124.756 70.4112C125.617 70.1748 126.508 70.6817 126.745 71.5436L129.208 80.522C129.444 81.3839 128.937 82.2743 128.075 82.5109L123.554 83.7515C122.692 83.9879 121.801 83.481 121.565 82.619L119.101 73.6406C118.865 72.7786 119.372 71.8883 120.234 71.6517Z" fill="#2F4859"/>
<path d="M74.2205 84.2757L78.7421 83.0352C79.604 82.7988 80.4944 83.3057 80.731 84.1676L83.1941 93.1462C83.4305 94.0081 82.9236 94.8985 82.0616 95.1351L77.54 96.3757C76.6781 96.6121 75.7877 96.1052 75.5511 95.2432L73.0879 86.2648C72.8514 85.4028 73.3585 84.5123 74.2205 84.2757Z" fill="#2F4859"/>
<path d="M119.513 48.3706C119.144 48.5076 118.942 48.9045 119.048 49.2832C119.34 49.9997 119.051 50.8214 118.375 51.1973L117.25 51.5061L118.281 53.0397C118.281 53.0397 125.523 51.0524 124.668 48.728C124.004 46.9239 120.88 47.8599 119.513 48.3706Z" fill="#2F4859"/>
<path d="M67.3502 62.3472C67.7381 62.2815 68.1115 62.5242 68.2093 62.9051C68.3148 63.6715 68.976 64.2385 69.7494 64.226L70.878 63.9311L70.7519 65.7747C70.7519 65.7747 63.4863 67.6748 63.0648 65.2341C62.7375 63.3399 65.9107 62.5886 67.3502 62.3472Z" fill="#2F4859"/>
<path d="M126.408 61.6876C125.798 59.9519 124.824 58.3666 123.552 57.0377L118.992 52.2494C118.992 52.2494 110.283 41.4664 107.76 41.0986C105.321 40.7428 91.3051 44.2715 90.3768 44.5063L90.3256 44.52C89.4073 44.7923 75.5532 48.9101 73.6371 50.4606C71.6549 52.0642 69.6648 65.7802 69.6648 65.7802L68.1892 72.225C67.7735 74.017 67.7449 75.8769 68.1052 77.6809C68.9445 81.654 70.4183 85.4663 72.4698 88.9709C73.4367 90.6238 75.3957 91.4179 77.2408 90.9048L101.246 84.3237L101.297 84.3099L125.301 77.7249C127.149 77.2243 128.428 75.5417 128.416 73.627C128.393 69.5652 127.715 65.5336 126.408 61.6876Z" fill="white"/>
<path d="M87.4784 79.9123L110.87 73.4948C111.288 73.38 111.721 73.6262 111.835 74.0446L112.928 78.0275C113.043 78.4461 112.797 78.8785 112.378 78.9932L88.987 85.4108C88.5684 85.5256 88.1361 85.2794 88.0213 84.8609L86.9286 80.878C86.8138 80.4594 87.06 80.0271 87.4784 79.9123Z" fill="#3A556A"/>
<path d="M108.694 42.8268C108.306 42.3597 107.686 42.155 107.097 42.3002L90.9887 46.2641L90.9383 46.2776L75.0622 51.0887C74.4818 51.2648 74.0529 51.757 73.9582 52.3561L72.1324 63.9242L94.1228 57.891L94.1732 57.8775L116.167 51.8434L108.694 42.8268Z" fill="#2F4859"/>
<path d="M121.541 69.9134C119.999 70.3361 119.092 71.9286 119.514 73.4704C119.937 75.0123 121.53 75.9196 123.071 75.4968C124.613 75.0741 125.521 73.4816 125.098 71.9397C125.098 71.9393 125.098 71.9388 125.097 71.9384C124.674 70.3973 123.082 69.4908 121.541 69.9134Z" fill="#EBF0F3"/>
<path d="M76.7138 82.2124C75.172 82.6355 74.2652 84.2283 74.6884 85.77C75.1114 87.3118 76.7043 88.2186 78.246 87.7954C79.7878 87.3724 80.6945 85.7796 80.2714 84.2379C79.8482 82.6962 78.2555 81.7893 76.7138 82.2124Z" fill="#EBF0F3"/>
<path d="M86.8037 72.4922L107.196 67.0281L107.878 69.5736L87.4858 75.0377L86.8037 72.4922Z" fill="#3A556A"/>
<path d="M122.709 58.5819C122.482 58.0042 121.83 57.7201 121.252 57.9472C121.208 57.9649 121.164 57.9854 121.121 58.0089L112.407 62.7878C112.145 62.9316 111.951 63.1736 111.868 63.4603L110.84 67.013C110.668 67.6083 111.011 68.2304 111.607 68.4027C111.803 68.4595 112.011 68.4615 112.209 68.4086L121.32 65.9672C121.534 65.9116 121.726 65.7948 121.874 65.6311C123.642 63.6318 123.721 61.2341 122.709 58.5819Z" fill="#E1E6E9"/>
<path d="M118.522 60.6319C117.407 60.98 116.785 62.1664 117.133 63.2815C117.481 64.3966 118.668 65.0184 119.783 64.6701C120.898 64.3219 121.52 63.1359 121.172 62.0207C120.823 60.9058 119.637 60.284 118.522 60.6319Z" fill="#BDBEC1"/>
<path d="M114.716 63.7413C113.867 64.0055 113.394 64.9075 113.658 65.7558C113.922 66.604 114.824 67.0775 115.673 66.8133C116.521 66.5491 116.994 65.6471 116.73 64.7988C116.73 64.7983 116.73 64.798 116.73 64.7976C116.465 63.9499 115.564 63.4771 114.716 63.7413Z" fill="#BDBEC1"/>
<path d="M69.6886 72.789C69.5963 72.1753 70.0192 71.603 70.6329 71.5109C70.6807 71.5038 70.7289 71.4996 70.7774 71.4987L80.7138 71.2801C81.0123 71.2739 81.301 71.3866 81.5163 71.5935L84.183 74.156C84.6297 74.5856 84.6438 75.2958 84.2143 75.7427C84.0726 75.8901 83.8932 75.996 83.6957 76.0489L74.5843 78.4903C74.3716 78.5489 74.1465 78.544 73.9366 78.4762C71.4056 77.6288 70.1389 75.5916 69.6886 72.789Z" fill="#E1E6E9"/>
<path d="M74.3402 72.4699C75.48 72.2138 76.6116 72.9304 76.8675 74.0703C77.1236 75.2101 76.407 76.3417 75.2672 76.5976C74.1275 76.8536 72.996 76.1374 72.7398 74.9976C72.4842 73.8578 73.2005 72.7263 74.3402 72.4699Z" fill="#BDBEC1"/>
<path d="M79.192 73.2596C80.0587 73.0642 80.9198 73.6087 81.1151 74.4754C81.3104 75.3421 80.766 76.2032 79.8993 76.3985C79.0325 76.5938 78.1715 76.0494 77.9761 75.1827C77.976 75.1822 77.9759 75.1819 77.9758 75.1814C77.7812 74.315 78.3256 73.4548 79.192 73.2596Z" fill="#BDBEC1"/>
</g>
</g>
<defs>
<filter id="filter0_d_4_274" x="0.6875" y="0.6875" width="192.544" height="192.544" filterUnits="userSpaceOnUse" color-interpolation-filters="sRGB">
<feFlood flood-opacity="0" result="BackgroundImageFix"/>
<feColorMatrix in="SourceAlpha" type="matrix" values="0 0 0 0 0 0 0 0 0 0 0 0 0 0 0 0 0 0 127 0" result="hardAlpha"/>
<feOffset dy="30"/>
<feGaussianBlur stdDeviation="20"/>
<feColorMatrix type="matrix" values="0 0 0 0 0.0980392 0 0 0 0 0.631373 0 0 0 0 0.658824 0 0 0 0.43 0"/>
<feBlend mode="normal" in2="BackgroundImageFix" result="effect1_dropShadow_4_274"/>
<feBlend mode="normal" in="SourceGraphic" in2="effect1_dropShadow_4_274" result="shape"/>
</filter>
<filter id="filter1_ii_4_274" x="40.0554" y="10.0554" width="113.808" height="113.808" filterUnits="userSpaceOnUse" color-interpolation-filters="sRGB">
<feFlood flood-opacity="0" result="BackgroundImageFix"/>
<feBlend mode="normal" in="SourceGraphic" in2="BackgroundImageFix" result="shape"/>
<feColorMatrix in="SourceAlpha" type="matrix" values="0 0 0 0 0 0 0 0 0 0 0 0 0 0 0 0 0 0 127 0" result="hardAlpha"/>
<feOffset dx="0.632146" dy="0.632146"/>
<feGaussianBlur stdDeviation="0.316073"/>
<feComposite in2="hardAlpha" operator="arithmetic" k2="-1" k3="1"/>
<feColorMatrix type="matrix" values="0 0 0 0 1 0 0 0 0 1 0 0 0 0 1 0 0 0 0.2 0"/>
<feBlend mode="normal" in2="shape" result="effect1_innerShadow_4_274"/>
<feColorMatrix in="SourceAlpha" type="matrix" values="0 0 0 0 0 0 0 0 0 0 0 0 0 0 0 0 0 0 127 0" result="hardAlpha"/>
<feOffset dx="-0.632146" dy="-0.632146"/>
<feGaussianBlur stdDeviation="0.316073"/>
<feComposite in2="hardAlpha" operator="arithmetic" k2="-1" k3="1"/>
<feColorMatrix type="matrix" values="0 0 0 0 0 0 0 0 0 0 0 0 0 0 0 0 0 0 0.05 0"/>
<feBlend mode="normal" in2="effect1_innerShadow_4_274" result="effect2_innerShadow_4_274"/>
</filter>
<linearGradient id="paint0_linear_4_274" x1="184.537" y1="7.05957" x2="184.537" y2="107.06" gradientUnits="userSpaceOnUse">
<stop stop-color="#6683E7"/>
<stop offset="1" stop-color="#4968D7"/>
</linearGradient>
<linearGradient id="paint1_linear_4_274" x1="184.537" y1="7.05957" x2="184.537" y2="107.06" gradientUnits="userSpaceOnUse">
<stop offset="0.328125" stop-color="white"/>
<stop offset="1" stop-opacity="0.1"/>
</linearGradient>
<clipPath id="clip0_4_274">
<rect width="63.7863" height="63.7863" fill="white" transform="translate(57.5068 44.5098) rotate(-15)"/>
</clipPath>
</defs>
</svg>
