<svg width="109" height="67" viewBox="0 0 109 67" fill="none" xmlns="http://www.w3.org/2000/svg">
<path d="M90.1201 12.8406C91.708 14.0696 93.1634 15.4296 94.4917 16.8962C90.2572 14.6135 85.6607 12.8981 81.4348 11.4378L81.4346 11.4377C72.2826 8.28413 63.0366 6.43138 53.4132 5.70432L53.4125 5.70426C52.2031 5.61648 50.9916 5.52508 49.7809 5.43089C50.2219 5.34606 50.5228 4.98499 50.6223 4.61365C50.6863 4.37468 50.6765 4.10603 50.5525 3.87552C50.4527 3.68998 50.2884 3.54707 50.0684 3.46831C63.9693 2.37139 78.8997 4.15767 90.1201 12.8406ZM48.9629 5.36682C48.1509 5.30281 47.3397 5.23761 46.5301 5.17149C46.2044 5.14346 45.9356 5.2493 45.7527 5.4491C45.5759 5.64235 45.5001 5.90052 45.5038 6.14844C45.511 6.64039 45.8419 7.19262 46.5062 7.24888L46.5066 7.24891C47.9394 7.36805 49.3704 7.47179 50.7988 7.57534C55.7556 7.9347 60.6817 8.29181 65.5479 9.28265C69.9514 10.1898 74.3132 11.3367 78.6078 12.6948L78.6079 12.6948C85.2329 14.7862 92.4463 17.4748 98.192 21.7317C100.072 24.6401 101.578 27.7984 102.741 31.0752C103.928 34.4348 104.769 37.9782 104.833 41.4986C102.835 45.5124 99.3344 49.1007 95.6439 51.5402L95.7817 51.7488L95.6438 51.5402C84.6638 58.8 69.949 59.7947 57.0388 59.8344C47.28 59.8596 36.7212 59.5994 27.0019 57.3126C23.5966 56.0489 20.281 54.5658 17.1049 52.8385C12.4775 50.3177 8.04281 47.0521 5.21987 42.6181C3.154 36.9572 5.34187 30.7064 8.33191 25.6311C13.9975 16.0333 23.2288 9.95123 33.543 6.60041C38.5916 5.22015 43.8939 4.61759 48.9629 5.36682ZM53.9707 1.22433C47.1387 1.38975 40.287 2.30899 33.8095 4.28936C25.7303 6.29418 18.0061 10.384 11.8533 15.2319L11.8531 15.2321C7.69188 18.5176 4.06235 22.8873 2.18155 27.727C0.298284 32.573 0.168633 37.8935 3.02038 43.0455C3.19902 43.3686 3.38573 43.6863 3.58012 43.9986C3.82591 44.6201 4.11176 45.2377 4.43998 45.8504C7.14668 50.9044 11.9613 54.2844 17.3699 56.5388C20.3225 57.7695 23.459 58.6678 26.5399 59.3206C26.9977 59.4862 27.4518 59.6475 27.9011 59.8049C36.9722 62.9921 46.4758 64.6282 56.0253 65.4023C64.093 66.0542 75.7405 66.4172 85.8637 64.0123C95.9835 61.6082 104.66 56.4144 106.622 45.8982C106.873 44.5569 107.005 43.1935 107.029 41.8191C107.793 40.0908 108.286 38.3088 108.465 36.5106C108.842 32.7331 107.833 28.9004 105.081 25.3689C103.555 23.4076 101.723 21.6946 99.6978 20.1822C97.6462 17.2233 95.2948 14.5655 92.819 12.3827L92.6537 12.5702L92.819 12.3826C82.1977 3.02058 67.5594 0.902006 53.9708 1.22433L53.9707 1.22433ZM103.576 26.7925C105.955 29.6985 106.769 32.806 106.501 35.8605C105.968 33.0389 105.054 30.2366 103.857 27.5469C103.717 27.2339 103.574 26.9223 103.427 26.6124C103.477 26.6722 103.526 26.7322 103.575 26.7924L103.576 26.7925ZM103.583 47.2685C103.868 46.9281 104.142 46.5833 104.406 46.2344C104.241 47.0212 104.026 47.8021 103.755 48.5744C102.055 53.4221 98.2323 56.6716 93.6537 58.8799C89.0738 61.0889 83.7611 62.244 79.1289 62.9119L79.1287 62.9119C68.3028 64.4799 57.0099 63.8221 46.2099 62.1839C44.2228 61.8796 42.2354 61.5214 40.2565 61.1047C50.7072 62.0106 61.2195 62.2883 71.6637 61.1172L71.6639 61.1171C83.1555 59.8189 95.8516 56.5207 103.583 47.2685ZM4.46897 28.3522C3.85544 29.7505 3.35557 31.1823 2.99808 32.6325C3.38715 29.7507 4.53058 26.9211 6.13435 24.3943L6.13441 24.3942C7.245 22.6426 8.56519 21.0316 10.0379 19.549C7.8153 22.2103 5.85203 25.2 4.46897 28.3522Z" fill="#2D9596" stroke="#2D9596" stroke-width="0.5"/>
</svg>
