<svg width="20" height="13" viewBox="0 0 20 13" fill="none" xmlns="http://www.w3.org/2000/svg">
<path d="M2.52844 4.0703C2.76592 4.20579 3.48178 4.60816 4.67604 5.27723C5.87035 5.9463 6.78526 6.46146 7.42084 6.82275C7.49066 6.86235 7.63902 6.94844 7.86596 7.08113C8.09295 7.21392 8.28156 7.32121 8.43163 7.40306C8.58182 7.48488 8.76338 7.57666 8.9765 7.67827C9.18954 7.77978 9.39037 7.85613 9.57893 7.90668C9.76754 7.95765 9.94212 7.98289 10.1027 7.98289H10.1133H10.1238C10.2844 7.98289 10.4591 7.95762 10.6477 7.90668C10.8362 7.85613 11.0372 7.77969 11.2501 7.67827C11.463 7.57655 11.6446 7.48485 11.7948 7.40306C11.945 7.32121 12.1334 7.21392 12.3605 7.08113C12.5874 6.94833 12.7359 6.86235 12.8058 6.82275C13.4482 6.46146 15.0826 5.54389 17.7086 4.07013C18.2184 3.78229 18.6443 3.43497 18.9865 3.02841C19.3289 2.62202 19.5 2.19571 19.5 1.74969C19.5 1.37698 19.334 1.05793 19.0022 0.792576C18.6705 0.527164 18.2776 0.394531 17.8237 0.394531H2.40269C1.86495 0.394531 1.45111 0.541313 1.16127 0.834877C0.871466 1.1285 0.726562 1.49552 0.726562 1.9359C0.726562 2.29161 0.91869 2.67708 1.30276 3.09207C1.6868 3.50708 2.09549 3.83319 2.52844 4.0703Z" fill="white" fill-opacity="0.8"/>
<path d="M18.4522 4.97609C16.1617 6.22946 14.4224 7.20354 13.2352 7.89813C12.8371 8.13519 12.5142 8.32024 12.2662 8.4528C12.0182 8.58551 11.6883 8.72101 11.2762 8.8593C10.8642 8.99777 10.4802 9.06682 10.124 9.06682H10.1133H10.1028C9.74658 9.06682 9.3624 8.99777 8.9504 8.8593C8.53841 8.72101 8.20835 8.58551 7.96041 8.4528C7.71255 8.32024 7.3895 8.13519 6.99144 7.89813C6.04853 7.33916 4.31299 6.36504 1.78477 4.97609C1.38657 4.76166 1.03387 4.51588 0.726562 4.23926V10.9639C0.726562 11.3368 0.89062 11.6557 1.21892 11.921C1.54714 12.1865 1.94182 12.3192 2.4028 12.3192H17.8239C18.2847 12.3192 18.6794 12.1865 19.0076 11.921C19.336 11.6556 19.5 11.3368 19.5 10.9639V4.23926C19.1996 4.51016 18.8505 4.75592 18.4522 4.97609Z" fill="white" fill-opacity="0.8"/>
</svg>
