<svg width="96" height="96" viewBox="0 0 96 96" fill="none" xmlns="http://www.w3.org/2000/svg">
<rect width="96" height="96" rx="12" transform="matrix(-1 0 0 1 96 0)" fill="#EAF2F2"/>
<path fill-rule="evenodd" clip-rule="evenodd" d="M57.1033 46.3447H26.4829C25.1114 46.3447 24 47.4562 24 48.8273V69.5173C24 70.8884 25.1114 71.9999 26.4829 71.9999H56.276C57.6471 71.9999 58.7585 70.8884 58.7585 69.5173V47.9996C58.7585 47.0856 58.0177 46.3447 57.1033 46.3447Z" fill="#2D9596"/>
<path fill-rule="evenodd" clip-rule="evenodd" d="M33.517 67.8625H30.2068C29.0642 67.8625 28.1377 66.9363 28.1377 65.7937C28.1377 64.6508 29.0642 63.7246 30.2068 63.7246H33.517C34.6599 63.7246 35.5861 64.6508 35.5861 65.7937C35.5861 66.9363 34.6599 67.8625 33.517 67.8625Z" fill="#FFC042"/>
<path fill-rule="evenodd" clip-rule="evenodd" d="M55.3077 57.9313H24V52.9658H50.2178C51.4592 54.5519 52.8812 55.9878 54.4552 57.2443L55.3077 57.9313Z" fill="white"/>
<path fill-rule="evenodd" clip-rule="evenodd" d="M71.9995 29.495V39.5999C72.0014 40.8201 71.8988 42.0385 71.6934 43.2412C70.6255 48.8076 67.5545 53.7893 63.0614 57.2441L59.3872 60.1987C59.017 60.4859 58.4992 60.4859 58.1293 60.1987L55.3073 57.9311L54.4796 57.2441C52.8969 55.9891 51.4665 54.5532 50.2173 52.9656C48.6455 50.9808 47.4253 48.7414 46.609 46.3448C46.26 45.3345 45.9971 44.2962 45.8231 43.2412C45.6173 42.0385 45.5148 40.8201 45.5166 39.5999V29.5034C45.5415 28.7347 46.0546 28.0682 46.7914 27.8481L58.1128 24.0992C58.5329 23.9669 58.9833 23.9669 59.4037 24.0992L70.7332 27.8397C71.4696 28.0587 71.9812 28.727 71.9995 29.495Z" fill="#2D9596"/>
<path fill-rule="evenodd" clip-rule="evenodd" d="M56.5238 54.662C52.6632 51.7129 50.014 47.4534 49.0754 42.6868C48.9099 41.6662 48.8268 40.6338 48.8271 39.6V31.2495C48.8275 30.8914 49.0579 30.5742 49.3981 30.4633L58.5017 27.4592C58.6691 27.4094 58.8474 27.4094 59.0148 27.4592L68.118 30.4633C68.4586 30.5742 68.689 30.8914 68.6893 31.2495V39.6C68.6868 40.6342 68.6007 41.6665 68.4326 42.6868C67.494 47.4534 64.8448 51.7129 60.9842 54.662L58.7581 56.4579L56.5238 54.662Z" fill="#3DB6B7"/>
<path fill-rule="evenodd" clip-rule="evenodd" d="M28.9658 50.4824H28.1382C27.6812 50.4824 27.3105 50.1118 27.3105 49.6548C27.3105 49.1978 27.6812 48.8271 28.1382 48.8271H28.9658C29.4229 48.8271 29.7935 49.1978 29.7935 49.6548C29.7935 50.1118 29.4229 50.4824 28.9658 50.4824Z" fill="white"/>
<path fill-rule="evenodd" clip-rule="evenodd" d="M43.8623 50.4824H43.0347C42.5776 50.4824 42.207 50.1118 42.207 49.6548C42.207 49.1978 42.5776 48.8271 43.0347 48.8271H43.8623C44.3193 48.8271 44.6899 49.1978 44.6899 49.6548C44.6899 50.1118 44.3193 50.4824 43.8623 50.4824Z" fill="white"/>
<path fill-rule="evenodd" clip-rule="evenodd" d="M39.7239 50.4824H32.2759C31.8188 50.4824 31.4482 50.1118 31.4482 49.6548C31.4482 49.1978 31.8188 48.8271 32.2759 48.8271H39.7239C40.1809 48.8271 40.5515 49.1978 40.5515 49.6548C40.5515 50.1118 40.1809 50.4824 39.7239 50.4824Z" fill="white"/>
<path fill-rule="evenodd" clip-rule="evenodd" d="M45.5168 65.3799H39.7238C39.2667 65.3799 38.8965 65.0093 38.8965 64.5523C38.8965 64.0952 39.2667 63.7246 39.7238 63.7246H45.5168C45.9742 63.7246 46.3445 64.0952 46.3445 64.5523C46.3445 65.0093 45.9742 65.3799 45.5168 65.3799Z" fill="white"/>
<path fill-rule="evenodd" clip-rule="evenodd" d="M42.2067 68.6895H39.7238C39.2667 68.6895 38.8965 68.3189 38.8965 67.8618C38.8965 67.4048 39.2667 67.0342 39.7238 67.0342H42.2067C42.6637 67.0342 43.0343 67.4048 43.0343 67.8618C43.0343 68.3189 42.6637 68.6895 42.2067 68.6895Z" fill="white"/>
<path fill-rule="evenodd" clip-rule="evenodd" d="M58.9158 52.9078C58.6653 52.9089 58.428 52.7961 58.2702 52.6017C58.1314 52.4307 58.0662 52.2117 58.0896 51.9927C58.1131 51.7737 58.2226 51.573 58.3943 51.4349C58.6177 51.261 58.8331 51.079 59.04 50.897C59.3849 50.619 59.8874 50.6622 60.1803 50.9947C60.4729 51.3273 60.4517 51.8315 60.1324 52.1384L59.4369 52.7178C59.2905 52.8394 59.1062 52.9064 58.9158 52.9078Z" fill="#2D9596"/>
<path fill-rule="evenodd" clip-rule="evenodd" d="M62.069 49.7381C61.8822 49.737 61.7013 49.6729 61.5559 49.5561C61.1981 49.2745 61.1351 48.7567 61.4149 48.3974C62.7252 46.767 63.6682 44.8726 64.1791 42.8445C64.3116 42.4333 64.7376 42.1934 65.158 42.293C65.578 42.3926 65.8508 42.7984 65.7845 43.225C65.2228 45.4853 64.178 47.5972 62.7227 49.4155C62.5663 49.6184 62.325 49.7378 62.069 49.7381Z" fill="#2D9596"/>
<path fill-rule="evenodd" clip-rule="evenodd" d="M56.8795 44.6898C56.6462 44.6895 56.4235 44.5902 56.2672 44.4166L54.008 41.9341C53.7883 41.7187 53.7063 41.3998 53.7949 41.1053C53.8831 40.8109 54.1274 40.5897 54.4292 40.5307C54.7309 40.4721 55.0404 40.5853 55.2326 40.8248L56.8879 42.6291L62.2921 36.6869C62.6048 36.3804 63.1021 36.3702 63.427 36.6642C63.7518 36.9583 63.791 37.4545 63.5167 37.7958L57.5002 44.4166C57.342 44.5924 57.116 44.6917 56.8795 44.6898Z" fill="#F4F6F8"/>
</svg>
