<svg width="96" height="96" viewBox="0 0 96 96" fill="none" xmlns="http://www.w3.org/2000/svg">
<rect width="96" height="96" rx="12" transform="matrix(-1 0 0 1 96 0.000976562)" fill="#2680EB" fill-opacity="0.16"/>
<g clip-path="url(#clip0_9_5440)">
<path d="M51.7842 24.6113H65.1919C66.4266 24.6113 67.6106 25.1018 68.4836 25.9748C69.3566 26.8478 69.8471 28.0319 69.8471 29.2665H51.7842V24.6113Z" fill="#2680EB"/>
<path d="M46.2216 64.2001C45.5524 63.8208 44.7975 63.6186 44.0282 63.6127C43.259 63.6067 42.501 63.7973 41.8261 64.1662L29.0573 71.1468C28.7584 71.3102 28.4222 71.393 28.0816 71.387C27.741 71.3811 27.4079 71.2866 27.1149 71.1128C26.8219 70.9391 26.5792 70.6921 26.4106 70.3961C26.242 70.1002 26.1533 69.7654 26.1533 69.4248V29.0613C26.1533 26.6885 28.2304 24.6113 30.6033 24.6113H65.3022C64.738 24.6113 64.1793 24.7224 63.6581 24.9383C63.1368 25.1542 62.6632 25.4707 62.2642 25.8696C61.8652 26.2686 61.5488 26.7422 61.3329 27.2635C61.117 27.7847 61.0058 28.3434 61.0058 28.9076V69.2123C61.0058 69.5555 60.9158 69.8927 60.7448 70.1902C60.5738 70.4878 60.3278 70.7352 60.0312 70.908C59.7347 71.0808 59.3981 71.1727 59.0549 71.1748C58.7117 71.1768 58.374 71.0888 58.0755 70.9196L46.2216 64.2001Z" fill="#78B6FF"/>
<path d="M42.341 63.9259C42.1645 63.9951 41.9925 64.0754 41.8261 64.1663L29.0573 71.1469C28.7584 71.3102 28.4222 71.393 28.0816 71.387C27.741 71.3811 27.4079 71.2866 27.1149 71.1128C26.8219 70.9391 26.5792 70.6921 26.4106 70.3961C26.242 70.1001 26.1533 69.7654 26.1533 69.4248V29.0613C26.1533 26.6885 28.2304 24.6113 30.6033 24.6113H32.7994C30.3922 24.6113 28.6545 27.5714 28.6545 29.3292V68.222C28.662 68.7871 28.8855 69.1763 29.443 69.0106L42.341 63.9255V63.9259Z" fill="#2680EB"/>
<path d="M44.2797 36.0028L46.149 41.7558C46.2093 41.9414 46.3268 42.1032 46.4847 42.2179C46.6426 42.3326 46.8327 42.3944 47.0278 42.3944H53.077C53.2721 42.3944 53.4622 42.4561 53.6201 42.5708C53.778 42.6855 53.8955 42.8473 53.9558 43.0328C54.0161 43.2184 54.0161 43.4183 53.9557 43.6039C53.8954 43.7895 53.7779 43.9512 53.6201 44.0659L48.7263 47.6215C48.5684 47.7362 48.4509 47.8979 48.3906 48.0835C48.3303 48.2691 48.3303 48.469 48.3906 48.6546L50.2596 54.4076C50.3199 54.5932 50.3199 54.7931 50.2595 54.9787C50.1992 55.1642 50.0817 55.326 49.9239 55.4407C49.766 55.5554 49.5759 55.6171 49.3807 55.6172C49.1856 55.6172 48.9955 55.5554 48.8376 55.4407L43.9438 51.8852C43.7859 51.7705 43.5958 51.7087 43.4007 51.7087C43.2056 51.7087 43.0154 51.7705 42.8576 51.8852L37.9638 55.4407C37.8059 55.5554 37.6158 55.6172 37.4207 55.6172C37.2255 55.6171 37.0354 55.5554 36.8775 55.4407C36.7197 55.326 36.6022 55.1642 36.5418 54.9787C36.4815 54.7931 36.4815 54.5932 36.5418 54.4076L38.4111 48.6546C38.4714 48.469 38.4714 48.2691 38.4111 48.0835C38.3508 47.8979 38.2333 47.7362 38.0755 47.6215L33.1817 44.0659C33.0238 43.9512 32.9063 43.7895 32.846 43.6039C32.7857 43.4183 32.7857 43.2184 32.846 43.0328C32.9063 42.8472 33.0238 42.6855 33.1817 42.5708C33.3396 42.4561 33.5298 42.3943 33.7249 42.3944H39.7739C39.9691 42.3944 40.1592 42.3326 40.3171 42.2179C40.475 42.1032 40.5925 41.9414 40.6527 41.7558L42.522 36.0028C42.5823 35.8172 42.6998 35.6554 42.8577 35.5407C43.0156 35.426 43.2057 35.3643 43.4009 35.3643C43.596 35.3643 43.7862 35.426 43.944 35.5407C44.1019 35.6554 44.2194 35.8172 44.2797 36.0028Z" fill="#2680EB"/>
<path d="M37.7365 55.5635C37.5736 55.6223 37.3975 55.6342 37.2282 55.5979C37.0589 55.5615 36.9032 55.4785 36.7787 55.3581C36.6543 55.2376 36.5661 55.0847 36.5243 54.9167C36.4824 54.7487 36.4885 54.5723 36.5418 54.4076L38.411 48.6546C38.4713 48.469 38.4713 48.2691 38.411 48.0835C38.3507 47.898 38.2333 47.7362 38.0754 47.6215L33.1816 44.0659C33.0238 43.9512 32.9063 43.7895 32.846 43.6039C32.7857 43.4183 32.7857 43.2184 32.846 43.0328C32.9063 42.8472 33.0238 42.6855 33.1817 42.5708C33.3396 42.4561 33.5297 42.3943 33.7248 42.3943H39.7739C39.969 42.3943 40.1591 42.3325 40.317 42.2178C40.4749 42.1031 40.5924 41.9414 40.6527 41.7558L42.522 36.0028C42.5799 35.8158 42.6968 35.6526 42.8552 35.5375C43.0136 35.4224 43.205 35.3617 43.4008 35.3643L41.2619 41.934C41.1562 42.2585 40.9506 42.5413 40.6744 42.7418C40.3982 42.9423 40.0657 43.0503 39.7244 43.0502H33.8671C33.5203 43.0502 33.3703 43.4169 33.7265 43.6931L38.4773 47.128C38.7205 47.3038 38.9025 47.5514 38.9976 47.8359C39.0927 48.1205 39.0961 48.4278 39.0075 48.7144L37.1819 54.6217C37.0463 55.0273 37.2911 55.5282 37.7365 55.5635Z" fill="#0E55A9"/>
</g>
<defs>
<clipPath id="clip0_9_5440">
<rect width="48" height="48" fill="white" transform="translate(24 24.001)"/>
</clipPath>
</defs>
</svg>
