<svg width="96" height="96" viewBox="0 0 96 96" fill="none" xmlns="http://www.w3.org/2000/svg">
<rect width="96" height="96" rx="12" transform="matrix(-1 0 0 1 96 0)" fill="#FFC042" fill-opacity="0.16"/>
<path d="M46.1535 66.4612C36.9772 66.4612 29.5381 59.0222 29.5381 49.8459C29.5381 40.6695 36.9772 33.2305 46.1535 33.2305C55.3298 33.2305 62.7689 40.6695 62.7689 49.8459C62.7689 59.0222 55.3298 66.4612 46.1535 66.4612Z" fill="#F0F0F0"/>
<path d="M67.0462 42.4619H61.0352C61.6139 43.6222 62.0607 44.8601 62.3552 46.1542H68.0007C67.7884 44.8831 67.4672 43.649 67.0462 42.4619Z" fill="#FFC042"/>
<path d="M53.7609 64.6154C51.48 65.7951 48.8935 66.4615 46.1538 66.4615C36.9923 66.4615 29.5385 59.0077 29.5385 49.8462C29.5385 41.3095 36.0129 34.2618 44.3077 33.3397V38.7692L53.5385 31.3846L44.3077 24V27.7745C32.9372 28.7142 24 38.2329 24 49.8462C24 62.0815 33.9185 72 46.1538 72C52.7151 72 58.6098 69.1477 62.6668 64.6154H53.7609Z" fill="#FED178"/>
<path d="M61.0353 57.2305C60.3661 58.5745 59.5196 59.8151 58.5264 60.9228H65.3424C66.0181 59.7551 66.5894 58.52 67.0454 57.2305H61.0353Z" fill="#FFC042"/>
<path d="M68.001 53.538C68.2022 52.3371 68.3075 51.1039 68.3075 49.8457H62.769C62.769 51.114 62.6259 52.35 62.3555 53.538H68.001Z" fill="#FFC042"/>
<path d="M27.6923 49.8462C27.6923 38.2329 36.6295 28.7142 48 27.7745V26.9538L44.3077 24V27.7745C32.9372 28.7142 24 38.2329 24 49.8462C24 62.0815 33.9185 72 46.1538 72C46.776 72 47.3908 71.9677 48 71.9178C36.6295 70.9782 27.6923 61.4594 27.6923 49.8462Z" fill="#FFC042"/>
<path d="M55.3847 50.3075H45.6924V40.6152H46.6155V49.3845H55.3847V50.3075Z" fill="#363F4D"/>
<path d="M46.1538 51.6923C45.1338 51.6923 44.3076 50.8662 44.3076 49.8462C44.3076 48.8262 45.1338 48 46.1538 48C47.1738 48 47.9999 48.8262 47.9999 49.8462C47.9999 50.8662 47.1738 51.6923 46.1538 51.6923Z" fill="#B1628C"/>
<path d="M59.2832 49.3848H60.9235V50.3078H59.2832V49.3848Z" fill="#363F4D"/>
<path d="M31.3848 49.3848H33.0251V50.3078H31.3848V49.3848Z" fill="#363F4D"/>
<path d="M55.1016 59.4551L55.7543 58.8024L56.9141 59.9622L56.2614 60.615L55.1016 59.4551Z" fill="#363F4D"/>
<path d="M35.3799 39.7285L36.0326 39.0758L37.1925 40.2357L36.5398 40.8884L35.3799 39.7285Z" fill="#363F4D"/>
<path d="M45.6924 62.9746H46.6155V64.6149H45.6924V62.9746Z" fill="#363F4D"/>
<path d="M35.3779 59.9609L36.5378 58.8011L37.1905 59.4538L36.0306 60.6137L35.3779 59.9609Z" fill="#363F4D"/>
<path d="M55.1035 40.2393L56.2634 39.0794L56.9161 39.7321L55.7562 40.892L55.1035 40.2393Z" fill="#363F4D"/>
</svg>
