<svg width="95" height="96" viewBox="0 0 95 96" fill="none" xmlns="http://www.w3.org/2000/svg">
<rect width="95" height="96" rx="12" transform="matrix(-1 0 0 1 95 0)" fill="#9D7ED5" fill-opacity="0.16"/>
<path d="M66.8771 47.1728V48.0003C66.8771 48.2198 66.7902 48.4303 66.6355 48.5855C66.4809 48.7407 66.2712 48.8279 66.0525 48.8279H61.9297V46.3452C61.9297 46.1257 62.0166 45.9152 62.1712 45.76C62.3258 45.6048 62.5356 45.5176 62.7542 45.5176H65.2279C65.6649 45.5189 66.0836 45.6937 66.3926 46.0038C66.7016 46.3139 66.8758 46.7342 66.8771 47.1728Z" fill="#9D7ED5"/>
<path d="M57.8066 47.1729H61.9294V48.828H57.8066V47.1729Z" fill="#9D7ED5"/>
<path d="M28.9474 46.3452V48.8279H24.8246C24.6059 48.8279 24.3961 48.7407 24.2415 48.5855C24.0869 48.4303 24 48.2198 24 48.0003V47.1728C24.0013 46.7342 24.1755 46.3139 24.4845 46.0038C24.7934 45.6937 25.2121 45.5189 25.6491 45.5176H28.1228C28.3415 45.5176 28.5512 45.6048 28.7059 45.76C28.8605 45.9152 28.9474 46.1257 28.9474 46.3452Z" fill="#9D7ED5"/>
<path d="M28.9473 47.1729H32.2455V48.828H28.9473V47.1729Z" fill="#9D7ED5"/>
<path d="M63.5789 66.5879V70.3451C63.5776 70.7837 63.4034 71.2039 63.0945 71.5141C62.7855 71.8242 62.3668 71.999 61.9298 72.0003H58.6315C58.1946 71.999 57.7759 71.8242 57.4669 71.5141C57.1579 71.2039 56.9837 70.7837 56.9824 70.3451V67.8624H60.2807C61.4999 67.8651 62.6762 67.4105 63.5789 66.5879Z" fill="#57565C"/>
<path d="M33.8943 67.8624V70.3451C33.893 70.7837 33.7189 71.2039 33.4099 71.5141C33.1009 71.8242 32.6822 71.999 32.2452 72.0003H28.947C28.51 71.999 28.0913 71.8242 27.7823 71.5141C27.4733 71.2039 27.2992 70.7837 27.2979 70.3451V66.5879C28.2005 67.4105 29.3768 67.8651 30.5961 67.8624H33.8943Z" fill="#57565C"/>
<path d="M30.5961 67.8624H33.8943V70.3451H30.5961C29.3768 70.3478 28.2005 69.8933 27.2979 69.0706V66.5879C28.2005 67.4105 29.3768 67.8651 30.5961 67.8624Z" fill="#3E3D42"/>
<path d="M63.5789 66.5879V69.0706C62.6762 69.8933 61.4999 70.3478 60.2807 70.3451H56.9824V67.8624H60.2807C61.4999 67.8651 62.6762 67.4105 63.5789 66.5879Z" fill="#3E3D42"/>
<path d="M65.2284 58.2949V63.7238C65.2236 65.0393 64.7008 66.2995 63.774 67.2297C62.8473 68.1599 61.5916 68.6846 60.281 68.6894H55.7789C55.6419 68.6891 55.507 68.6549 55.3862 68.59C55.2654 68.5251 55.1624 68.4313 55.0863 68.3169L54.237 67.0342L52.2827 64.0963C52.2066 63.9819 52.1036 63.8881 51.9828 63.8232C51.862 63.7583 51.7271 63.7241 51.5901 63.7238H39.2877C39.1506 63.7241 39.0158 63.7583 38.895 63.8232C38.7742 63.8881 38.6712 63.9819 38.595 64.0963L36.6408 67.0342L35.7915 68.3169C35.7154 68.4313 35.6123 68.5251 35.4916 68.59C35.3708 68.6549 35.2359 68.6891 35.0989 68.6894H30.5968C29.2861 68.6846 28.0305 68.1599 27.1037 67.2297C26.177 66.2995 25.6542 65.0393 25.6494 63.7238V58.2783C32.7236 59.5901 39.8949 60.3043 47.088 60.4135C53.193 60.3625 59.2748 59.6522 65.2284 58.2949Z" fill="#8465BB"/>
<path d="M65.2284 52.9322V58.295C59.2748 59.6523 53.193 60.3626 47.088 60.4136C39.8949 60.3044 32.7236 59.5902 25.6494 58.2784V52.9322C25.65 52.6843 25.7058 52.4397 25.8128 52.2163C25.9198 51.9929 26.0753 51.7964 26.2678 51.6412L27.8675 50.3584L28.9477 50.8963V54.0908C28.948 54.4735 29.0804 54.8443 29.3225 55.1401C29.5645 55.4358 29.9012 55.6382 30.2752 55.7129L34.8598 56.6315C35.5382 56.7688 36.2425 56.6885 36.8729 56.4018C37.5033 56.1152 38.0279 55.6367 38.3724 55.0343L39.0815 53.7929H51.7963L52.5054 55.0343C52.8499 55.6367 53.3745 56.1152 54.0049 56.4018C54.6353 56.6885 55.3396 56.7688 56.018 56.6315L60.6026 55.7129C60.9766 55.6382 61.3133 55.4358 61.5553 55.1401C61.7974 54.8443 61.9298 54.4735 61.9301 54.0908V50.8963L63.0103 50.3584L64.6099 51.6412C64.8025 51.7964 64.9579 51.9929 65.0649 52.2163C65.172 52.4397 65.2278 52.6843 65.2284 52.9322Z" fill="#9D7ED5"/>
<path d="M61.1053 48.8271L63.01 50.3582L61.9298 50.8961L59.6375 52.0465C57.8358 52.955 55.8813 53.5191 53.8739 53.7099C53.3398 53.7664 52.803 53.794 52.266 53.7927H38.6112C38.0742 53.794 37.5374 53.7664 37.0033 53.7099C34.9959 53.5191 33.0414 52.955 31.2396 52.0465L28.9474 50.8961L27.8672 50.3582L29.7719 48.8271H61.1053Z" fill="#8465BB"/>
<path d="M61.9298 50.8965V54.091C61.9295 54.4737 61.797 54.8445 61.555 55.1402C61.3129 55.436 60.9762 55.6384 60.6022 55.713L56.0177 56.6317C55.3392 56.769 54.6349 56.6886 54.0045 56.402C53.3741 56.1153 52.8495 55.6369 52.505 55.0344L51.7959 53.793H52.2659C52.803 53.7944 53.3397 53.7667 53.8738 53.7103C55.8812 53.5195 57.8357 52.9554 59.6375 52.0468L61.9298 50.8965Z" fill="#F0F0F0"/>
<path d="M61.1048 48.8277H29.7715L32.2452 42.207H58.6311L60.9399 48.3891L61.1048 48.8277Z" fill="#F0F0F0"/>
<path d="M61.1054 48.8277H45.8428C49.2092 47.2346 52.2254 44.9838 54.7151 42.207H58.6317L61.1054 48.8277Z" fill="#D8D7DA"/>
<path d="M58.6321 42.2068H32.2461L34.5796 39.8648C34.8861 39.5574 35.25 39.3138 35.6504 39.1476C36.0508 38.9815 36.4799 38.8961 36.9131 38.8965H53.965C54.3983 38.8961 54.8274 38.9815 55.2278 39.1476C55.6282 39.3138 55.992 39.5574 56.2985 39.8648L58.6321 42.2068Z" fill="#9D7ED5"/>
<path d="M54.2368 67.035H36.6406L38.5948 64.097C38.671 63.9827 38.774 63.8889 38.8948 63.824C39.0156 63.759 39.1504 63.7249 39.2875 63.7246H51.5899C51.727 63.7249 51.8618 63.759 51.9826 63.824C52.1034 63.8889 52.2064 63.9827 52.2826 64.097L54.2368 67.035Z" fill="#9D7ED5"/>
<path d="M39.0811 53.793L38.372 55.0344C38.0275 55.6369 37.5029 56.1153 36.8725 56.402C36.2421 56.6886 35.5378 56.769 34.8594 56.6317L30.2748 55.713C29.9008 55.6384 29.5641 55.436 29.3221 55.1402C29.08 54.8445 28.9476 54.4737 28.9473 54.091V50.8965L31.2395 52.0468C33.0413 52.9554 34.9958 53.5195 37.0032 53.7103C37.5373 53.7667 38.0741 53.7944 38.6111 53.793H39.0811Z" fill="#F0F0F0"/>
<path d="M60.94 48.3891C59.9214 48.6829 58.8665 48.8306 57.8067 48.8277C55.6222 48.8273 53.4826 48.205 51.6363 47.0331C49.79 45.8612 48.3127 44.1877 47.376 42.207H58.6312L60.94 48.3891Z" fill="#D8D7DA"/>
<path d="M60.9407 48.3891C59.9221 48.6829 58.8672 48.8306 57.8073 48.8277C55.0942 48.832 52.4675 47.8702 50.3945 46.1132C51.9691 44.9691 53.4175 43.6596 54.7152 42.207H58.6319L60.9407 48.3891Z" fill="#C6C5CA"/>
<path d="M60.9407 48.3891C59.9221 48.6829 58.8672 48.8306 57.8073 48.8277C55.0942 48.832 52.4675 47.8702 50.3945 46.1132C51.9691 44.9691 53.4175 43.6596 54.7152 42.207H58.6319L60.9407 48.3891Z" fill="#DEDDE1"/>
<path d="M54.2368 67.035H53.1319L52.2826 65.7522C52.2064 65.6379 52.1034 65.5441 51.9826 65.4791C51.8618 65.4142 51.727 65.3801 51.5899 65.3798H39.2875C39.1504 65.3801 39.0156 65.4142 38.8948 65.4791C38.774 65.5441 38.671 65.6379 38.5948 65.7522L37.7455 67.035H36.6406L38.5948 64.097C38.671 63.9827 38.774 63.8889 38.8948 63.824C39.0156 63.759 39.1504 63.7249 39.2875 63.7246H51.5899C51.727 63.7249 51.8618 63.759 51.9826 63.824C52.1034 63.8889 52.2064 63.9827 52.2826 64.097L54.2368 67.035Z" fill="#9D7ED5"/>
<path d="M58.6319 42.2068H47.3766C46.8803 41.1599 46.544 40.044 46.3789 38.8965H53.9649C54.3981 38.8961 54.8272 38.9815 55.2276 39.1476C55.628 39.3138 55.9918 39.5574 56.2984 39.8648L58.6319 42.2068Z" fill="#9D7ED5"/>
<path d="M59.456 47.1724C65.8315 47.1724 70.9998 41.9851 70.9998 35.5862C70.9998 29.1873 65.8315 24 59.456 24C53.0805 24 47.9121 29.1873 47.9121 35.5862C47.9121 41.9851 53.0805 47.1724 59.456 47.1724Z" fill="#FFC042"/>
<path d="M57.8067 28.9658V29.7934C56.3403 29.7944 54.9072 30.2316 53.6884 31.0499C52.4696 31.8682 51.5198 33.0307 50.9591 34.3906C50.3984 35.7505 50.2519 37.2467 50.5383 38.6901C50.8246 40.1334 51.5308 41.4593 52.5676 42.4999C53.6045 43.5406 54.9255 44.2494 56.3636 44.5368C57.8017 44.8241 59.2924 44.6771 60.6474 44.1144C62.0023 43.5516 63.1606 42.5984 63.9758 41.3751C64.7911 40.1518 65.2267 38.7134 65.2277 37.2417H66.0523C66.0523 35.0468 65.1835 32.9418 63.6372 31.3898C62.0908 29.8377 59.9935 28.9658 57.8067 28.9658Z" fill="#D69F33"/>
<path d="M66.8771 35.586C66.8762 37.0577 66.4405 38.4961 65.6252 39.7194C64.81 40.9427 63.6517 41.8959 62.2968 42.4587C60.9419 43.0214 59.4511 43.1684 58.013 42.8811C56.5749 42.5937 55.2539 41.8849 54.2171 40.8442C53.1802 39.8036 52.474 38.4777 52.1877 37.0343C51.9014 35.5909 52.0478 34.0948 52.6085 32.7349C53.1692 31.375 54.119 30.2124 55.3378 29.3942C56.5566 28.5759 57.9897 28.1387 59.4561 28.1377V31.448C60.5495 31.448 61.5982 31.884 62.3713 32.66C63.1445 33.436 63.5789 34.4885 63.5789 35.586H66.8771Z" fill="#F0F0F0"/>
<path d="M55.3712 30.322C55.0492 29.9988 54.5271 29.9988 54.2051 30.322C53.8831 30.6452 53.8831 31.1692 54.2051 31.4924L54.7882 32.0776C55.1102 32.4008 55.6323 32.4008 55.9543 32.0776C56.2763 31.7544 56.2763 31.2304 55.9543 30.9072L55.3712 30.322Z" fill="#DBE7E7"/>
<path d="M53.6843 34.7588H52.8597C52.4043 34.7588 52.0352 35.1293 52.0352 35.5864C52.0352 36.0434 52.4043 36.414 52.8597 36.414H53.6843C54.1397 36.414 54.5088 36.0434 54.5088 35.5864C54.5088 35.1293 54.1397 34.7588 53.6843 34.7588Z" fill="#DBE7E7"/>
<path d="M54.7862 39.0991L54.2032 39.6843C53.8812 40.0075 53.8812 40.5315 54.2032 40.8547C54.5252 41.1779 55.0473 41.1779 55.3693 40.8547L55.9523 40.2695C56.2743 39.9463 56.2743 39.4223 55.9523 39.0991C55.6303 38.776 55.1082 38.776 54.7862 39.0991Z" fill="#DBE7E7"/>
<path d="M60.281 41.3793C60.281 40.9223 59.9118 40.5518 59.4564 40.5518C59.001 40.5518 58.6318 40.9223 58.6318 41.3793V42.2069C58.6318 42.664 59.001 43.0345 59.4564 43.0345C59.9118 43.0345 60.281 42.664 60.281 42.2069V41.3793Z" fill="#DBE7E7"/>
<path d="M64.1134 39.1004C63.7914 38.7772 63.2693 38.7772 62.9473 39.1004C62.6253 39.4235 62.6253 39.9475 62.9473 40.2707L63.5304 40.8559C63.8524 41.1791 64.3745 41.1791 64.6965 40.8559C65.0185 40.5327 65.0185 40.0087 64.6965 39.6855L64.1134 39.1004Z" fill="#DBE7E7"/>
<path d="M59.4558 37.241C60.3665 37.241 61.1049 36.5 61.1049 35.5858C61.1049 34.6717 60.3665 33.9307 59.4558 33.9307C58.545 33.9307 57.8066 34.6717 57.8066 35.5858C57.8066 36.5 58.545 37.241 59.4558 37.241Z" fill="#A7B9D0"/>
<path d="M67.7017 35.5864H63.5789C63.5789 34.489 63.1445 33.4365 62.3713 32.6605C61.5981 31.8844 60.5495 31.4485 59.4561 31.4485V27.3105C61.6429 27.3105 63.7402 28.1825 65.2866 29.7345C66.8329 31.2865 67.7017 33.3915 67.7017 35.5864Z" fill="#B1628C"/>
<path d="M29.7722 63.7245V62.0693H28.123V63.7245C28.123 64.383 28.3837 65.0145 28.8476 65.4801C29.3115 65.9457 29.9407 66.2073 30.5967 66.2073H33.895V64.5521H30.5967C30.378 64.5521 30.1683 64.4649 30.0137 64.3097C29.859 64.1545 29.7722 63.944 29.7722 63.7245Z" fill="#9D7ED5"/>
<path d="M61.1052 63.7245C61.1052 63.944 61.0184 64.1545 60.8637 64.3097C60.7091 64.4649 60.4994 64.5521 60.2807 64.5521H56.9824V66.2073H60.2807C60.9367 66.2073 61.5659 65.9457 62.0298 65.4801C62.4937 65.0145 62.7544 64.383 62.7544 63.7245V62.0693H61.1052V63.7245Z" fill="#9D7ED5"/>
</svg>
