<svg width="559" height="300" viewBox="0 0 559 300" fill="none" xmlns="http://www.w3.org/2000/svg">
<path d="M51.2626 102.611C51.2626 102.611 96.3137 44.2691 188.556 31.2184C280.797 18.1676 383.932 96.4353 425.326 125.956C466.72 155.439 546.785 181.798 554.605 228.891C562.425 275.984 536.631 298.998 536.631 298.998H14.965C14.965 298.998 -3.20323 219.958 17.1437 168.49C37.4516 117.022 51.2626 102.611 51.2626 102.611Z" fill="#2D9596"/>
<path d="M51.2626 102.611C51.2626 102.611 96.3137 44.2691 188.556 31.2184C280.797 18.1676 383.932 96.4353 425.326 125.956C466.72 155.439 546.785 181.798 554.605 228.891C562.425 275.984 536.631 298.998 536.631 298.998H14.965C14.965 298.998 -3.20323 219.958 17.1437 168.49C37.4516 117.022 51.2626 102.611 51.2626 102.611Z" fill="#E6F5F5"/>
<path d="M536.321 1H443.263V298.998H536.321V1Z" fill="white" stroke="#363F4D" stroke-width="2" stroke-linecap="round" stroke-linejoin="round"/>
<path d="M443.263 184.078V298.998H536.321V184.078H443.263Z" fill="#2D9596" stroke="#363F4D" stroke-width="2" stroke-linecap="round" stroke-linejoin="round"/>
<path d="M495.318 259.738L445.481 212.646V227.645L495.318 274.738V259.738Z" fill="#363F4D"/>
<path d="M534.612 296.869L522.163 285.142V296.869H534.612Z" fill="#363F4D"/>
<path d="M495.318 296.867V288.448L445.481 241.355V256.355L488.393 296.867H495.318Z" fill="#363F4D"/>
<path d="M495.318 231.063L447.777 186.139H445.481V198.969L495.318 246.062V231.063Z" fill="#363F4D"/>
<path d="M522.163 256.427V271.426L536.324 284.808V269.808L522.163 256.427Z" fill="#363F4D"/>
<path d="M473.881 296.869L445.481 270.032V285.031L458.009 296.869H473.881Z" fill="#363F4D"/>
<path d="M495.319 202.351L478.162 186.139H462.289L495.319 217.35V202.351Z" fill="#363F4D"/>
<path d="M522.163 227.755V242.754L536.324 256.136V241.137L522.163 227.755Z" fill="#363F4D"/>
<path d="M536.321 1H498.623V298.998H536.321V1Z" fill="white" stroke="#363F4D" stroke-width="2" stroke-linecap="round" stroke-linejoin="round"/>
<path d="M498.623 184.078V298.998H536.321V184.078H498.623Z" fill="#2D9596" stroke="#363F4D" stroke-width="2" stroke-linecap="round" stroke-linejoin="round"/>
<path d="M501.151 235.99V250.989L535.037 218.969V203.97L501.151 235.99Z" fill="#363F4D"/>
<path d="M501.151 293.337V298.998H511.072L535.037 276.353V261.354L501.151 293.337Z" fill="#363F4D"/>
<path d="M523.91 185.769L501.151 207.275V222.274L535.037 190.29V185.769H523.91Z" fill="#363F4D"/>
<path d="M501.151 264.661V279.66L535.037 247.64V232.641L501.151 264.661Z" fill="#363F4D"/>
<path d="M535.038 290.027L525.545 298.997H535.038V290.027Z" fill="#363F4D"/>
<path d="M252.361 26.3662V1" stroke="#363F4D" stroke-width="2" stroke-linecap="round" stroke-linejoin="round"/>
<path d="M233.338 26.3662V1V26.3662Z" fill="white"/>
<path d="M233.338 26.3662V1" stroke="#363F4D" stroke-width="2" stroke-miterlimit="10"/>
<path d="M214.312 26.3662V1V26.3662Z" fill="white"/>
<path d="M214.312 26.3662V1" stroke="#363F4D" stroke-width="2" stroke-miterlimit="10"/>
<path d="M320.092 26.3662V1" stroke="#363F4D" stroke-width="2" stroke-linecap="round" stroke-linejoin="round"/>
<path d="M301.066 26.3662V1V26.3662Z" fill="white"/>
<path d="M301.066 26.3662V1" stroke="#363F4D" stroke-width="2" stroke-miterlimit="10"/>
<path d="M282.045 26.3662V1V26.3662Z" fill="white"/>
<path d="M282.045 26.3662V1" stroke="#363F4D" stroke-width="2" stroke-miterlimit="10"/>
<path d="M387.864 26.3662V1" stroke="#363F4D" stroke-width="2" stroke-linecap="round" stroke-linejoin="round"/>
<path d="M368.802 26.3662V1V26.3662Z" fill="white"/>
<path d="M368.802 26.3662V1" stroke="#363F4D" stroke-width="2" stroke-miterlimit="10"/>
<path d="M349.777 26.3662V1V26.3662Z" fill="white"/>
<path d="M349.777 26.3662V1" stroke="#363F4D" stroke-width="2" stroke-miterlimit="10"/>
<path d="M455.597 26.3662V1" stroke="#363F4D" stroke-width="2" stroke-linecap="round" stroke-linejoin="round"/>
<path d="M436.533 26.3662V1V26.3662Z" fill="white"/>
<path d="M436.533 26.3662V1" stroke="#363F4D" stroke-width="2" stroke-miterlimit="10"/>
<path d="M417.508 26.3662V1V26.3662Z" fill="white"/>
<path d="M417.508 26.3662V1" stroke="#363F4D" stroke-width="2" stroke-miterlimit="10"/>
<path d="M469.214 36.4756H412.881V26.9541H469.214V36.4756Z" fill="#363F4D" stroke="#363F4D" stroke-width="2" stroke-linecap="round" stroke-linejoin="round"/>
<path d="M469.214 36.4762H412.881V30.2266H469.214V36.4762Z" fill="white" stroke="#363F4D" stroke-width="2" stroke-linecap="round" stroke-linejoin="round"/>
<path d="M469.214 36.4762H430.31V30.2266H469.214V36.4762Z" fill="white" stroke="#363F4D" stroke-width="2" stroke-linecap="round" stroke-linejoin="round"/>
<path d="M398.95 36.4756H342.617V26.9541H398.95V36.4756Z" fill="#363F4D" stroke="#363F4D" stroke-width="2" stroke-linecap="round" stroke-linejoin="round"/>
<path d="M398.95 36.4762H342.617V30.2266H398.95V36.4762Z" fill="white" stroke="#363F4D" stroke-width="2" stroke-linecap="round" stroke-linejoin="round"/>
<path d="M398.95 36.4762H360.046V30.2266H398.95V36.4762Z" fill="white" stroke="#363F4D" stroke-width="2" stroke-linecap="round" stroke-linejoin="round"/>
<path d="M328.69 36.4756H272.396V26.9541H328.69V36.4756Z" fill="#363F4D" stroke="#363F4D" stroke-width="2" stroke-linecap="round" stroke-linejoin="round"/>
<path d="M328.69 36.4762H272.396V30.2266H328.69V36.4762Z" fill="white" stroke="#363F4D" stroke-width="2" stroke-linecap="round" stroke-linejoin="round"/>
<path d="M328.69 36.4762H289.786V30.2266H328.69V36.4762Z" fill="white" stroke="#363F4D" stroke-width="2" stroke-linecap="round" stroke-linejoin="round"/>
<path d="M258.467 36.4756H202.134V26.9541H258.467V36.4756Z" fill="#363F4D" stroke="#363F4D" stroke-width="2" stroke-linecap="round" stroke-linejoin="round"/>
<path d="M258.467 36.4762H202.134V30.2266H258.467V36.4762Z" fill="white" stroke="#363F4D" stroke-width="2" stroke-linecap="round" stroke-linejoin="round"/>
<path d="M258.467 36.4762H219.524V30.2266H258.467V36.4762Z" fill="white" stroke="#363F4D" stroke-width="2" stroke-linecap="round" stroke-linejoin="round"/>
<path d="M200.852 20.5568H468.473V16.3291H200.852V20.5568Z" fill="#363F4D" stroke="#363F4D" stroke-width="2" stroke-linecap="round" stroke-linejoin="round"/>
<path d="M449.951 262.344H443.104L443.026 262.491C442.443 262.38 441.859 262.344 441.237 262.344C432.95 262.344 426.181 270.542 426.181 280.652C426.181 290.761 432.95 298.996 441.237 298.996C441.859 298.996 442.443 298.923 443.026 298.849L443.104 298.996H449.951C458.277 298.996 465.007 290.761 465.007 280.652C465.007 270.542 458.277 262.344 449.951 262.344Z" fill="#363F4D" stroke="#363F4D" stroke-width="2" stroke-linecap="round" stroke-linejoin="round"/>
<path d="M310.169 262.344H303.322L303.244 262.491C302.66 262.38 302.077 262.344 301.454 262.344C293.168 262.344 286.398 270.542 286.398 280.652C286.398 290.761 293.168 298.996 301.454 298.996C302.077 298.996 302.66 298.923 303.244 298.849L303.322 298.996H310.169C318.494 298.996 325.225 290.761 325.225 280.652C325.225 270.542 318.494 262.344 310.169 262.344Z" fill="#363F4D" stroke="#363F4D" stroke-width="2" stroke-linecap="round" stroke-linejoin="round"/>
<path d="M514.884 262.895H511.616L508.659 243.448C508.309 241.095 506.169 239.33 503.641 239.33H485.278L455.477 209.442C452.248 206.207 447.774 204.369 443.067 204.369H364.052C360.629 204.369 357.322 205.693 354.949 208.045L219.251 262.16V285.026H422.681L473.762 284.696L511.616 282.343V282.196H514.728C515.39 282.196 515.973 281.644 515.973 281.019V263.888C515.973 263.336 515.467 262.895 514.884 262.895Z" fill="#B3B3B3" stroke="#363F4D" stroke-width="2" stroke-linecap="round" stroke-linejoin="round"/>
<path d="M457.072 281.533V284.805L473.762 284.695L511.616 282.342V282.195H514.728C515.195 282.195 515.623 281.901 515.818 281.533H457.072Z" fill="#363F4D" stroke="#363F4D" stroke-width="2" stroke-linecap="round" stroke-linejoin="round"/>
<path d="M473.762 284.696C475.357 284.585 475.279 282.343 473.684 282.343H454.505L383.738 204.369H364.052C360.629 204.369 357.322 205.693 354.949 208.045L219.251 262.16V285.026H422.681L473.762 284.696Z" fill="#363F4D" stroke="#363F4D" stroke-width="2" stroke-linecap="round" stroke-linejoin="round"/>
<path d="M250.919 262.344H244.111L239.637 268.557C237.303 271.792 235.863 276.019 235.863 280.652C235.863 285.32 237.303 289.548 239.637 292.783L244.111 298.996H250.919C259.245 298.996 266.014 290.761 266.014 280.652C266.014 270.542 259.245 262.344 250.919 262.344Z" fill="#363F4D" stroke="#363F4D" stroke-width="2" stroke-linecap="round" stroke-linejoin="round"/>
<path d="M257.298 280.652C257.298 290.761 250.568 298.996 242.242 298.996C233.917 298.996 227.187 290.761 227.187 280.652C227.187 270.542 233.917 262.344 242.242 262.344C250.568 262.344 257.298 270.542 257.298 280.652Z" fill="#636363" stroke="#363F4D" stroke-width="2" stroke-linecap="round" stroke-linejoin="round"/>
<path d="M254.263 280.65C254.263 288.738 248.895 295.282 242.242 295.282C235.628 295.282 230.221 288.738 230.221 280.65C230.221 272.599 235.628 266.056 242.242 266.056C248.895 266.056 254.263 272.599 254.263 280.65Z" fill="white" stroke="#363F4D" stroke-width="2" stroke-linecap="round" stroke-linejoin="round"/>
<path d="M244.808 280.65C244.808 282.377 243.641 283.738 242.241 283.738C240.84 283.738 239.712 282.377 239.712 280.65C239.712 278.959 240.84 277.562 242.241 277.562C243.641 277.562 244.808 278.959 244.808 280.65Z" fill="white" stroke="#363F4D" stroke-width="2" stroke-linecap="round" stroke-linejoin="round"/>
<path d="M402.996 262.344H396.149L391.675 268.557C389.341 271.792 387.94 276.019 387.94 280.652C387.94 285.32 389.341 289.548 391.675 292.783L396.149 298.996H402.996C411.322 298.996 418.052 290.761 418.052 280.652C418.052 270.542 411.322 262.344 402.996 262.344Z" fill="#363F4D" stroke="#363F4D" stroke-width="2" stroke-linecap="round" stroke-linejoin="round"/>
<path d="M409.377 280.652C409.377 290.761 402.647 298.996 394.321 298.996C385.996 298.996 379.227 290.761 379.227 280.652C379.227 270.542 385.996 262.344 394.321 262.344C402.647 262.344 409.377 270.542 409.377 280.652Z" fill="#4D5766" stroke="#363F4D" stroke-width="2" stroke-linecap="round" stroke-linejoin="round"/>
<path d="M406.344 280.65C406.344 288.738 400.936 295.282 394.322 295.282C387.67 295.282 382.301 288.738 382.301 280.65C382.301 272.599 387.67 266.056 394.322 266.056C400.936 266.056 406.344 272.599 406.344 280.65Z" fill="white" stroke="#363F4D" stroke-width="2" stroke-linecap="round" stroke-linejoin="round"/>
<path d="M396.849 280.65C396.849 282.377 395.721 283.738 394.321 283.738C392.92 283.738 391.753 282.377 391.753 280.65C391.753 278.959 392.92 277.562 394.321 277.562C395.721 277.562 396.849 278.959 396.849 280.65Z" fill="white" stroke="#363F4D" stroke-width="2" stroke-linecap="round" stroke-linejoin="round"/>
<path d="M455.477 209.443C455.243 209.185 454.971 208.965 454.699 208.744H393.152V237.456H483.449L455.477 209.443Z" fill="#4D5766" stroke="#363F4D" stroke-width="2" stroke-linecap="round" stroke-linejoin="round"/>
<path d="M462.558 262.895H458.978L455.399 239.33H432.64L402.84 209.442C399.611 206.207 395.137 204.369 390.429 204.369H317.912C314.449 204.369 311.143 205.693 308.769 208.045L262.435 237.308L219.601 254.771L212.871 263.3C211.237 265.395 210.342 267.932 210.342 270.542V285.026H223.88V280.211C223.88 268.373 232.945 258.815 244.15 258.815C254.148 258.815 260.373 266.461 261.929 276.865L263.135 285.026H376.113V280.211C376.113 268.373 381.209 258.815 395.02 258.815C407.275 258.815 411.671 266.461 413.616 276.865L415.056 284.696L458.978 282.343V282.196H462.558V262.895Z" fill="#B3B3B3" stroke="#363F4D" stroke-width="2" stroke-linecap="round" stroke-linejoin="round"/>
<path d="M309.159 212.347L269.398 237.309H343.744V209.075H317.406C314.294 209.075 311.337 210.252 309.159 212.347Z" fill="#363F4D" stroke="#363F4D" stroke-width="2" stroke-linecap="round" stroke-linejoin="round"/>
<path d="M300.521 237.305L324.097 209.071H317.405C314.293 209.071 311.336 210.248 309.158 212.343L295.23 221.093L281.691 237.305H300.521Z" fill="white" stroke="#363F4D" stroke-width="2" stroke-linecap="round" stroke-linejoin="round"/>
<path d="M343.743 237.305V217.012L326.781 237.305H343.743Z" fill="white" stroke="#363F4D" stroke-width="2" stroke-linecap="round" stroke-linejoin="round"/>
<path d="M400.349 213.671L417.273 230.03C417.856 230.545 418.245 231.243 418.44 231.978C419.14 234.699 417 237.309 414.044 237.309H348.724V209.075H388.795C393.152 209.075 397.315 210.73 400.349 213.671Z" fill="#4D5766" stroke="#363F4D" stroke-width="2" stroke-linecap="round" stroke-linejoin="round"/>
<path d="M384.516 209.071H377.941L354.365 237.305H360.94L384.516 209.071Z" fill="white" stroke="#363F4D" stroke-width="2" stroke-linecap="round" stroke-linejoin="round"/>
<path d="M348.725 211.056V233.629L369.188 209.071H350.359L348.725 211.056Z" fill="white" stroke="#363F4D" stroke-width="2" stroke-linecap="round" stroke-linejoin="round"/>
<path d="M455.399 239.329H503.641C506.169 239.329 508.309 241.094 508.659 243.447L511.616 262.894H458.979L455.399 239.329Z" fill="#B3B3B3" stroke="#363F4D" stroke-width="2" stroke-linecap="round" stroke-linejoin="round"/>
<path d="M501.189 258.814H478.313V249.954H501.189V258.814Z" fill="white" stroke="#363F4D" stroke-width="2" stroke-linecap="round" stroke-linejoin="round"/>
<path d="M514.106 266.497H416.106H514.106Z" fill="#4D5766"/>
<path d="M514.106 266.497H416.106" stroke="#363F4D" stroke-width="4" stroke-linecap="round" stroke-linejoin="round"/>
<path d="M372.3 266.497H263.68H372.3Z" fill="white"/>
<path d="M372.3 266.497H263.68" stroke="#363F4D" stroke-width="4" stroke-linecap="round" stroke-linejoin="round"/>
<path d="M227.615 266.497H215.204H227.615Z" fill="white"/>
<path d="M227.615 266.497H215.204" stroke="#363F4D" stroke-width="4" stroke-linecap="round" stroke-linejoin="round"/>
<path d="M474.386 250.101H452.755C450.732 250.101 448.864 251.167 447.931 252.895L444.313 259.732C443.612 261.093 444.663 262.71 446.258 262.71H474.386V250.101Z" fill="#B3B3B3" stroke="#363F4D" stroke-width="2" stroke-linecap="round" stroke-linejoin="round"/>
<path d="M474.384 250.101H456.955L458.861 262.71H474.384V250.101Z" fill="#4D5766" stroke="#363F4D" stroke-width="2" stroke-linecap="round" stroke-linejoin="round"/>
<path d="M509.595 250.101H504.304L504.265 262.71H511.501L509.595 250.101Z" fill="#4D5766" stroke="#363F4D" stroke-width="2" stroke-linecap="round" stroke-linejoin="round"/>
<path d="M274.222 242.528H263.485C262.629 242.528 261.929 241.866 261.929 241.058V232.896C261.929 232.088 262.629 231.426 263.485 231.426H274.222C275.078 231.426 275.779 232.088 275.779 232.896V241.058C275.779 241.866 275.078 242.528 274.222 242.528Z" fill="#363F4D" stroke="#363F4D" stroke-width="2" stroke-linecap="round" stroke-linejoin="round"/>
<path d="M341.954 247.565H328.609V242.528H341.954V247.565Z" fill="#363F4D" stroke="#363F4D" stroke-width="2" stroke-linecap="round" stroke-linejoin="round"/>
<path d="M345.145 240.505V278.812" stroke="#363F4D" stroke-width="2" stroke-linecap="round" stroke-linejoin="round"/>
<path d="M254.965 257.638C254.965 257.638 264.769 262.858 266.014 280.651H369.693" stroke="#363F4D" stroke-width="2" stroke-linecap="round" stroke-linejoin="round"/>
<path d="M418.789 265.211C418.789 265.211 413.654 252.602 396.575 252.602C384.631 252.602 378.951 258.52 376.111 263.189" stroke="#363F4D" stroke-width="2" stroke-linecap="round" stroke-linejoin="round"/>
<path d="M295.507 262.344H288.699L288.582 262.491C287.998 262.38 287.415 262.344 286.831 262.344C278.506 262.344 271.775 270.542 271.775 280.652C271.775 290.761 278.506 298.996 286.831 298.996C287.415 298.996 287.998 298.923 288.582 298.849L288.699 298.996H295.507C303.832 298.996 310.563 290.761 310.563 280.652C310.563 270.542 303.832 262.344 295.507 262.344Z" fill="#363F4D" stroke="#363F4D" stroke-width="2" stroke-linecap="round" stroke-linejoin="round"/>
<path d="M155.724 262.344H148.916L148.799 262.491C148.215 262.38 147.632 262.344 147.048 262.344C138.723 262.344 131.992 270.542 131.992 280.652C131.992 290.761 138.723 298.996 147.048 298.996C147.632 298.996 148.215 298.923 148.799 298.849L148.916 298.996H155.724C164.049 298.996 170.78 290.761 170.78 280.652C170.78 270.542 164.049 262.344 155.724 262.344Z" fill="#363F4D" stroke="#363F4D" stroke-width="2" stroke-linecap="round" stroke-linejoin="round"/>
<path d="M360.437 262.895H357.169L354.251 243.448C353.862 241.095 351.722 239.33 349.193 239.33H330.869L301.069 209.442C297.84 206.207 293.327 204.369 288.619 204.369H209.605C206.182 204.369 202.875 205.693 200.501 208.045L64.8037 262.16V285.026H268.234L319.315 284.696L357.169 282.343V282.196H360.281C360.981 282.196 361.526 281.644 361.526 281.019V263.888C361.526 263.336 361.059 262.895 360.437 262.895Z" fill="white" stroke="#363F4D" stroke-width="2" stroke-linecap="round" stroke-linejoin="round"/>
<path d="M302.666 281.533V284.805L319.317 284.695L357.171 282.342V282.195H360.283C360.789 282.195 361.178 281.901 361.372 281.533H302.666Z" fill="#363F4D" stroke="#363F4D" stroke-width="2" stroke-linecap="round" stroke-linejoin="round"/>
<path d="M319.315 284.696C320.91 284.585 320.832 282.343 319.237 282.343H300.096L229.291 204.369H209.605C206.182 204.369 202.875 205.693 200.501 208.045L64.8037 262.16V285.026H268.234L319.315 284.696Z" fill="#363F4D" stroke="#363F4D" stroke-width="2" stroke-linecap="round" stroke-linejoin="round"/>
<path d="M96.513 262.344H89.6658L85.1918 268.557C82.8576 271.792 81.457 276.019 81.457 280.652C81.457 285.32 82.8576 289.548 85.1918 292.783L89.6658 298.996H96.513C104.838 298.996 111.569 290.761 111.569 280.652C111.569 270.542 104.838 262.344 96.513 262.344Z" fill="#363F4D" stroke="#363F4D" stroke-width="2" stroke-linecap="round" stroke-linejoin="round"/>
<path d="M102.892 280.652C102.892 290.761 96.1226 298.996 87.836 298.996C79.5105 298.996 72.7412 290.761 72.7412 280.652C72.7412 270.542 79.5105 262.344 87.836 262.344C96.1226 262.344 102.892 270.542 102.892 280.652Z" fill="#636363" stroke="#363F4D" stroke-width="2" stroke-linecap="round" stroke-linejoin="round"/>
<path d="M99.8193 280.65C99.8193 288.738 94.4505 295.282 87.8368 295.282C81.1842 295.282 75.8154 288.738 75.8154 280.65C75.8154 272.599 81.1842 266.056 87.8368 266.056C94.4505 266.056 99.8193 272.599 99.8193 280.65Z" fill="white" stroke="#363F4D" stroke-width="2" stroke-linecap="round" stroke-linejoin="round"/>
<path d="M90.364 280.65C90.364 282.377 89.2358 283.738 87.8353 283.738C86.3958 283.738 85.2676 282.377 85.2676 280.65C85.2676 278.959 86.3958 277.562 87.8353 277.562C89.2358 277.562 90.364 278.959 90.364 280.65Z" fill="white" stroke="#363F4D" stroke-width="2" stroke-linecap="round" stroke-linejoin="round"/>
<path d="M248.548 262.344H241.74L237.266 268.557C234.932 271.792 233.492 276.019 233.492 280.652C233.492 285.32 234.932 289.548 237.266 292.783L241.74 298.996H248.548C256.874 298.996 263.604 290.761 263.604 280.652C263.604 270.542 256.874 262.344 248.548 262.344Z" fill="#363F4D" stroke="#363F4D" stroke-width="2" stroke-linecap="round" stroke-linejoin="round"/>
<path d="M254.927 280.652C254.927 290.761 248.197 298.996 239.871 298.996C231.546 298.996 224.815 290.761 224.815 280.652C224.815 270.542 231.546 262.344 239.871 262.344C248.197 262.344 254.927 270.542 254.927 280.652Z" fill="#4D5766" stroke="#363F4D" stroke-width="2" stroke-linecap="round" stroke-linejoin="round"/>
<path d="M251.894 280.65C251.894 288.738 246.526 295.282 239.873 295.282C233.22 295.282 227.852 288.738 227.852 280.65C227.852 272.599 233.22 266.056 239.873 266.056C246.526 266.056 251.894 272.599 251.894 280.65Z" fill="white" stroke="#363F4D" stroke-width="2" stroke-linecap="round" stroke-linejoin="round"/>
<path d="M242.399 280.65C242.399 282.377 241.271 283.738 239.871 283.738C238.47 283.738 237.342 282.377 237.342 280.65C237.342 278.959 238.47 277.562 239.871 277.562C241.271 277.562 242.399 278.959 242.399 280.65Z" fill="white" stroke="#363F4D" stroke-width="2" stroke-linecap="round" stroke-linejoin="round"/>
<path d="M301.07 209.443C300.797 209.185 300.525 208.965 300.292 208.744H238.745V237.456H329.003L301.07 209.443Z" fill="#4D5766" stroke="#363F4D" stroke-width="2" stroke-linecap="round" stroke-linejoin="round"/>
<path d="M308.11 262.895H304.531L300.991 239.33H278.193L248.392 209.442C245.202 206.207 240.689 204.369 235.982 204.369H163.465C160.002 204.369 156.734 205.693 154.322 208.045L108.026 237.308L65.1537 254.771L58.4622 263.3C56.7893 265.395 55.8945 267.932 55.8945 270.542V285.026H69.4332V280.211C69.4332 268.373 78.4979 258.815 89.7412 258.815C99.7006 258.815 105.925 266.461 107.481 276.865L108.726 285.026H221.665V280.211C221.665 268.373 226.801 258.815 240.573 258.815C252.866 258.815 257.263 266.461 259.169 276.865L260.608 284.696L304.531 282.343V282.196H308.11V262.895Z" fill="white" stroke="#363F4D" stroke-width="2" stroke-linecap="round" stroke-linejoin="round"/>
<path d="M154.711 212.347L114.951 237.309H189.297V209.075H162.959C159.886 209.075 156.89 210.252 154.711 212.347Z" fill="#363F4D" stroke="#363F4D" stroke-width="2" stroke-linecap="round" stroke-linejoin="round"/>
<path d="M146.076 237.305L169.652 209.071H162.96C159.887 209.071 156.891 210.248 154.712 212.343L140.824 221.093L127.246 237.305H146.076Z" fill="white" stroke="#363F4D" stroke-width="2" stroke-linecap="round" stroke-linejoin="round"/>
<path d="M189.297 237.305V217.012L172.374 237.305H189.297Z" fill="white" stroke="#363F4D" stroke-width="2" stroke-linecap="round" stroke-linejoin="round"/>
<path d="M245.943 213.671L262.827 230.03C263.411 230.545 263.8 231.243 263.995 231.978C264.734 234.699 262.555 237.309 259.598 237.309H194.278V209.075H234.389C238.707 209.075 242.909 210.73 245.943 213.671Z" fill="#4D5766" stroke="#363F4D" stroke-width="2" stroke-linecap="round" stroke-linejoin="round"/>
<path d="M230.107 209.071H223.532L199.956 237.305H206.531L230.107 209.071Z" fill="white" stroke="#363F4D" stroke-width="2" stroke-linecap="round" stroke-linejoin="round"/>
<path d="M194.277 211.056V233.629L214.78 209.071H195.95L194.277 211.056Z" fill="white" stroke="#363F4D" stroke-width="2" stroke-linecap="round" stroke-linejoin="round"/>
<path d="M300.993 239.329H349.195C351.724 239.329 353.864 241.094 354.253 243.447L357.171 262.894H304.533L300.993 239.329Z" fill="white" stroke="#363F4D" stroke-width="2" stroke-linecap="round" stroke-linejoin="round"/>
<path d="M346.745 258.814H323.869V249.954H346.745V258.814Z" fill="white" stroke="#363F4D" stroke-width="2" stroke-linecap="round" stroke-linejoin="round"/>
<path d="M359.698 266.497H261.659H359.698Z" fill="#4D5766"/>
<path d="M359.698 266.497H261.659" stroke="#363F4D" stroke-width="4" stroke-linecap="round" stroke-linejoin="round"/>
<path d="M217.892 266.497H109.271H217.892Z" fill="white"/>
<path d="M217.892 266.497H109.271" stroke="#363F4D" stroke-width="4" stroke-linecap="round" stroke-linejoin="round"/>
<path d="M73.2081 266.497H60.7588H73.2081Z" fill="white"/>
<path d="M73.2081 266.497H60.7588" stroke="#363F4D" stroke-width="4" stroke-linecap="round" stroke-linejoin="round"/>
<path d="M319.937 250.101H298.306C296.283 250.101 294.416 251.167 293.521 252.895L289.903 259.732C289.164 261.093 290.214 262.71 291.848 262.71H319.937V250.101Z" fill="white" stroke="#363F4D" stroke-width="2" stroke-linecap="round" stroke-linejoin="round"/>
<path d="M319.938 250.101H302.509L304.415 262.71H319.938V250.101Z" fill="#4D5766" stroke="#363F4D" stroke-width="2" stroke-linecap="round" stroke-linejoin="round"/>
<path d="M355.147 250.101H349.895L349.817 262.71H357.054L355.147 250.101Z" fill="#4D5766" stroke="#363F4D" stroke-width="2" stroke-linecap="round" stroke-linejoin="round"/>
<path d="M119.816 242.528H109.04C108.184 242.528 107.483 241.866 107.483 241.058V232.896C107.483 232.088 108.184 231.426 109.04 231.426H119.816C120.672 231.426 121.372 232.088 121.372 232.896V241.058C121.372 241.866 120.672 242.528 119.816 242.528Z" fill="#363F4D" stroke="#363F4D" stroke-width="2" stroke-linecap="round" stroke-linejoin="round"/>
<path d="M187.507 247.565H174.163V242.528H187.507V247.565Z" fill="#363F4D" stroke="#363F4D" stroke-width="2" stroke-linecap="round" stroke-linejoin="round"/>
<path d="M190.697 240.505V278.812" stroke="#363F4D" stroke-width="2" stroke-linecap="round" stroke-linejoin="round"/>
<path d="M100.558 257.638C100.558 257.638 110.323 262.858 111.567 280.651H215.247" stroke="#363F4D" stroke-width="2" stroke-linecap="round" stroke-linejoin="round"/>
<path d="M264.342 265.211C264.342 265.211 259.245 252.602 242.128 252.602C230.223 252.602 224.504 258.52 221.664 263.189" stroke="#363F4D" stroke-width="2" stroke-linecap="round" stroke-linejoin="round"/>
<path d="M220.575 1H127.517V298.998H220.575V1Z" fill="white" stroke="#363F4D" stroke-width="2" stroke-linecap="round" stroke-linejoin="round"/>
<path d="M127.517 184.078V298.998H220.575V184.078H127.517Z" fill="#2D9596" stroke="#363F4D" stroke-width="2" stroke-linecap="round" stroke-linejoin="round"/>
<path d="M179.569 259.738L129.732 212.646V227.645L179.569 274.738V259.738Z" fill="#363F4D"/>
<path d="M218.861 296.869L206.412 285.142V296.869H218.861Z" fill="#363F4D"/>
<path d="M179.569 296.867V288.448L129.732 241.355V256.355L172.605 296.867H179.569Z" fill="#363F4D"/>
<path d="M179.569 231.063L132.028 186.139H129.732V198.969L179.569 246.062V231.063Z" fill="#363F4D"/>
<path d="M206.412 256.427V271.426L220.573 284.808V269.808L206.412 256.427Z" fill="#363F4D"/>
<path d="M158.132 296.869L129.732 270.032V285.031L142.26 296.869H158.132Z" fill="#363F4D"/>
<path d="M179.57 202.351L162.413 186.139H146.54L179.57 217.35V202.351Z" fill="#363F4D"/>
<path d="M206.412 227.755V242.754L220.573 256.136V241.137L206.412 227.755Z" fill="#363F4D"/>
<path d="M220.576 1H182.839V298.998H220.576V1Z" fill="white" stroke="#363F4D" stroke-width="2" stroke-linecap="round" stroke-linejoin="round"/>
<path d="M182.839 184.078V298.998H220.576V184.078H182.839Z" fill="#2D9596" stroke="#363F4D" stroke-width="2" stroke-linecap="round" stroke-linejoin="round"/>
<path d="M185.406 235.987V250.986L219.253 218.966V203.967L185.406 235.987Z" fill="#363F4D"/>
<path d="M185.406 293.337V298.998H195.327L219.253 276.353V261.354L185.406 293.337Z" fill="#363F4D"/>
<path d="M208.165 185.769L185.406 207.275V222.274L219.253 190.29V185.769H208.165Z" fill="#363F4D"/>
<path d="M185.406 264.661V279.66L219.253 247.64V232.641L185.406 264.661Z" fill="#363F4D"/>
<path d="M219.251 290.027L209.797 298.997H219.251V290.027Z" fill="#363F4D"/>
<path d="M78.1895 26.3662V1" stroke="#363F4D" stroke-width="2" stroke-linecap="round" stroke-linejoin="round"/>
<path d="M59.167 26.3662V1V26.3662Z" fill="white"/>
<path d="M59.167 26.3662V1" stroke="#363F4D" stroke-width="2" stroke-miterlimit="10"/>
<path d="M40.1416 26.3662V1V26.3662Z" fill="white"/>
<path d="M40.1416 26.3662V1" stroke="#363F4D" stroke-width="2" stroke-miterlimit="10"/>
<path d="M145.959 26.3662V1" stroke="#363F4D" stroke-width="2" stroke-linecap="round" stroke-linejoin="round"/>
<path d="M126.896 26.3662V1V26.3662Z" fill="white"/>
<path d="M126.896 26.3662V1" stroke="#363F4D" stroke-width="2" stroke-miterlimit="10"/>
<path d="M107.872 26.3662V1V26.3662Z" fill="white"/>
<path d="M107.872 26.3662V1" stroke="#363F4D" stroke-width="2" stroke-miterlimit="10"/>
<path d="M159.575 36.4756H103.242V26.9541H159.575V36.4756Z" fill="#363F4D" stroke="#363F4D" stroke-width="2" stroke-linecap="round" stroke-linejoin="round"/>
<path d="M159.575 36.4762H103.242V30.2266H159.575V36.4762Z" fill="white" stroke="#363F4D" stroke-width="2" stroke-linecap="round" stroke-linejoin="round"/>
<path d="M159.576 36.4762H120.633V30.2266H159.576V36.4762Z" fill="white" stroke="#363F4D" stroke-width="2" stroke-linecap="round" stroke-linejoin="round"/>
<path d="M89.3147 36.4756H32.9814V26.9541H89.3147V36.4756Z" fill="#363F4D" stroke="#363F4D" stroke-width="2" stroke-linecap="round" stroke-linejoin="round"/>
<path d="M89.3147 36.4762H32.9814V30.2266H89.3147V36.4762Z" fill="white" stroke="#363F4D" stroke-width="2" stroke-linecap="round" stroke-linejoin="round"/>
<path d="M89.3144 36.4762H50.4102V30.2266H89.3144V36.4762Z" fill="white" stroke="#363F4D" stroke-width="2" stroke-linecap="round" stroke-linejoin="round"/>
<path d="M7.92676 20.5568H158.836V16.3291H7.92676V20.5568Z" fill="#363F4D" stroke="#363F4D" stroke-width="2" stroke-linecap="round" stroke-linejoin="round"/>
<path d="M203.068 153.306C200.63 153.306 198.763 152.889 197.466 152.056C196.195 151.223 195.326 150.046 194.859 148.527C194.367 147.007 194.12 145.243 194.12 143.233H200.539C200.539 144.409 200.617 145.402 200.773 146.211C200.928 147.02 201.214 147.632 201.629 148.049C202.044 148.441 202.666 148.625 203.496 148.6C204.326 148.576 204.923 148.282 205.286 147.718C205.675 147.154 205.908 146.346 205.986 145.292C206.064 144.238 206.103 142.988 206.103 141.542C206.103 140.39 206.038 139.373 205.908 138.491C205.752 137.584 205.467 136.873 205.052 136.358C204.637 135.844 204.002 135.586 203.146 135.586C202.368 135.586 201.732 135.844 201.24 136.358C200.747 136.873 200.384 137.608 200.15 138.564H194.47L194.937 119.889H210.927V125.293H200.384L200.034 132.572C200.371 132.155 200.941 131.8 201.745 131.506C202.575 131.212 203.457 131.028 204.391 130.954C206.206 130.807 207.698 131.138 208.865 131.947C210.058 132.756 210.94 133.957 211.51 135.55C212.081 137.118 212.366 139.042 212.366 141.321C212.366 143.037 212.249 144.642 212.016 146.137C211.809 147.608 211.368 148.87 210.693 149.924C210.045 151.002 209.098 151.835 207.853 152.424C206.634 153.012 205.039 153.306 203.068 153.306Z" fill="#363F4D"/>
<path d="M215.13 107.355H187.508C186.068 107.355 184.901 106.216 184.901 104.856V78.7541C184.901 77.3939 186.068 76.291 187.508 76.291H215.13C216.569 76.291 217.736 77.3939 217.736 78.7541V104.856C217.736 106.216 216.569 107.355 215.13 107.355Z" fill="#363F4D" stroke="#363F4D" stroke-width="2" stroke-linecap="round" stroke-linejoin="round"/>
<path fill-rule="evenodd" clip-rule="evenodd" d="M194.473 104.746V78.4238H203.304C204.99 78.4238 206.351 78.7179 207.389 79.3061C208.452 79.8943 209.243 80.7521 209.762 81.8795C210.281 83.0069 210.54 84.3794 210.54 85.9969C210.54 87.8841 210.203 89.3546 209.529 90.4085C208.854 91.4623 207.933 92.2098 206.766 92.651C205.573 93.1166 204.225 93.3495 202.72 93.3495H200.153V104.746H194.473ZM200.153 89.5629H202.137C202.967 89.5629 203.602 89.4404 204.043 89.1953C204.484 88.9502 204.782 88.5581 204.938 88.0189C205.119 87.4797 205.21 86.7812 205.21 85.9234C205.21 85.1146 205.145 84.4406 205.016 83.9015C204.886 83.3623 204.601 82.9456 204.16 82.6515C203.719 82.3329 203.032 82.1736 202.098 82.1736H200.153V89.5629Z" fill="#2D9596"/>
<path d="M1 299.001H557.33" stroke="#363F4D" stroke-width="2" stroke-linecap="round" stroke-linejoin="round"/>
</svg>
