<svg width="17" height="15" viewBox="0 0 17 15" fill="none" xmlns="http://www.w3.org/2000/svg">
<g clip-path="url(#clip0_7_5170)">
<path fill-rule="evenodd" clip-rule="evenodd" d="M16.0467 9.14287V14.9102H12.6789V9.52173C12.6789 8.17463 12.2159 7.2485 10.995 7.2485C10.0689 7.2485 9.52165 7.87996 9.26907 8.46931C9.18488 8.6798 9.14278 8.97448 9.14278 9.26915V14.9102H5.77503C5.77503 14.9102 5.81712 5.77511 5.77503 4.84897H9.14278V6.28027C9.14278 6.28027 9.14278 6.32236 9.10068 6.32236H9.14278V6.28027C9.60585 5.60672 10.3636 4.59639 12.1738 4.59639C14.3628 4.59639 16.0467 6.06979 16.0467 9.14287ZM2.32307 0.0078125C1.18645 0.0078125 0.428711 0.765559 0.428711 1.73379C0.428711 2.70202 1.14436 3.45977 2.28098 3.45977H2.32307C3.50179 3.45977 4.21744 2.70202 4.21744 1.73379C4.17534 0.765559 3.45969 0.0078125 2.32307 0.0078125ZM0.597094 14.9102H3.92276V4.84897H0.597094V14.9102Z" fill="white"/>
</g>
<defs>
<clipPath id="clip0_7_5170">
<rect width="15.618" height="14.9023" fill="white" transform="translate(0.428711 0.0078125)"/>
</clipPath>
</defs>
</svg>
