<svg width="17" height="22" viewBox="0 0 17 22" fill="none" xmlns="http://www.w3.org/2000/svg">
<path fill-rule="evenodd" clip-rule="evenodd" d="M8.72655 6.6748C7.62188 6.6748 6.72656 7.57013 6.72656 8.6748C6.72656 9.77947 7.62188 10.6748 8.72655 10.6748C9.83123 10.6748 10.7266 9.77947 10.7266 8.6748C10.7266 7.57013 9.83123 6.6748 8.72655 6.6748ZM8.72655 0.674805C4.30857 0.674805 0.726562 4.25681 0.726562 8.6748C0.726562 12.0195 7.39658 22.0148 8.72655 22.0081C10.0359 22.0148 16.7265 11.9748 16.7265 8.6748C16.7265 4.25681 13.1446 0.674805 8.72655 0.674805ZM8.72639 12.0085C6.88573 12.0085 5.39307 10.5158 5.39307 8.67513C5.39307 6.83446 6.88573 5.3418 8.72639 5.3418C10.5671 5.3418 12.0597 6.83446 12.0597 8.67513C12.0597 10.5158 10.5671 12.0085 8.72639 12.0085Z" fill="white" fill-opacity="0.8"/>
</svg>
