<svg width="107" height="28" viewBox="0 0 107 28" fill="none" xmlns="http://www.w3.org/2000/svg">
<path d="M49.8854 5.29373V2.35804H37.2686V5.57698H45.2012L37.2686 16.5727V19.5342H50.0617V16.3151H41.9526L49.8854 5.29373Z" fill="#CCCCCC"/>
<path d="M75.8766 16.3152H71.0399V10.7046V2.35816H67.4639V10.7046V19.5342H75.8766V16.3152Z" fill="#CCCCCC"/>
<path d="M87.8038 19.5342V16.3152H84.2112V2.35816H80.9189V10.7046V19.5342H87.8038Z" fill="#CCCCCC"/>
<mask id="mask0_20_12267" style="mask-type:luminance" maskUnits="userSpaceOnUse" x="0" y="0" width="107" height="28">
<path d="M0 0H107V28H0V0Z" fill="white"/>
</mask>
<g mask="url(#mask0_20_12267)">
<path d="M96.1203 13.1003C96.1203 11.81 96.8975 11.0101 98.4463 10.7048C98.6828 10.6582 98.9368 10.6227 99.2088 10.5987C99.2285 10.5971 99.2496 10.5963 99.2694 10.5948C99.3865 10.5853 99.5055 10.5769 99.6293 10.5718C99.7775 10.5658 99.9298 10.5623 100.087 10.5623C100.088 10.5623 100.088 10.5623 100.088 10.5623H104.527C104.343 10.267 104.153 9.999 103.957 9.75836C103.826 9.59793 103.693 9.44957 103.556 9.31327C103.214 8.97252 102.854 8.70724 102.476 8.51691C102.248 8.40256 102.014 8.31528 101.774 8.25483C101.533 8.19438 101.285 8.16076 101.03 8.1537H98.3488C98.18 8.1537 98.0154 8.16345 97.8545 8.18194C97.6936 8.20042 97.5363 8.2275 97.3826 8.26228C97.2868 8.28397 97.1924 8.30887 97.0996 8.3371C97.0066 8.36521 96.9151 8.39678 96.8249 8.43156C96.2845 8.64024 95.7953 8.96726 95.3592 9.41338C95.3362 9.43879 95.3156 9.46446 95.2932 9.49C95.2221 9.57034 95.1512 9.65081 95.0848 9.73179C94.4652 10.4861 94.039 11.2689 93.8065 12.0835C93.691 12.4886 93.6182 12.9007 93.6019 13.3223V16.8426H93.0947H92.4059H91.8626V15.6263V8.11648L91.8624 8.11661C91.684 8.18206 91.5175 8.25252 91.3583 8.32632C91.3428 8.33364 91.3262 8.34057 91.3108 8.34788C91.1593 8.41962 91.0182 8.49612 90.8844 8.57569C90.8671 8.58608 90.8493 8.59622 90.8321 8.60675C90.7009 8.68722 90.5791 8.77167 90.4654 8.85984C90.4523 8.87023 90.4389 8.88063 90.426 8.89115C90.3116 8.98253 90.206 9.07763 90.1101 9.1771C90.1038 9.18339 90.0982 9.19006 90.092 9.19648C89.6852 9.62578 89.4493 10.129 89.3836 10.7048C89.3711 10.8154 89.3624 10.9277 89.3624 11.0437L89.3443 20.6776C89.3443 22.3631 88.1846 23.2155 85.8658 23.2155H82.5137C83.492 24.7531 84.6515 25.5496 86.0105 25.5869H87.1157C89.1267 25.5869 90.6668 24.3639 91.7176 21.8999L91.8626 20.881V20.6893V19.4732H92.4059H93.0947H93.8065H94.4456H105.414V16.8426H96.1203V13.1003Z" fill="#CCCCCC"/>
<path d="M29.8471 10.2691C29.8499 10.2554 29.8511 10.2411 29.8537 10.2274C29.8653 10.1653 29.8762 10.1032 29.883 10.0395C29.8914 9.96109 29.8959 9.88164 29.8964 9.80117C29.9048 8.4858 28.8805 7.41619 27.6041 7.40747C26.3329 7.39861 25.2923 8.44999 25.2746 9.74496C25.2735 9.82607 25.2772 9.9068 25.2844 9.98701C25.2857 9.99998 25.2882 10.0127 25.2895 10.0256C25.297 10.0949 25.3067 10.1636 25.3199 10.2316C25.3213 10.2387 25.3233 10.2456 25.3248 10.2527C25.3401 10.3274 25.359 10.401 25.381 10.4737L25.3821 10.4764C25.6611 11.3857 26.4692 12.1134 27.5395 12.1371C28.6745 12.1623 29.6249 11.3486 29.8471 10.2691Z" fill="#CCCCCC"/>
<path d="M24.4479 14.8225C23.9161 13.9478 23.4075 13.0583 22.894 12.1722C22.6273 11.7122 22.4981 11.2004 22.4105 10.6802C22.3883 10.5482 22.3712 10.4165 22.3579 10.2853L18.8594 19.5342H22.9391H27.3679C27.2059 19.2779 27.0456 19.0243 26.8886 18.7712C26.0732 17.4561 25.2519 16.1448 24.4479 14.8225Z" fill="#CCCCCC"/>
<path d="M32.6063 11.3673C32.4628 11.8784 32.2023 12.3269 31.9415 12.7767C30.6158 15.0635 29.2093 17.2986 27.8037 19.5342H32.2318H36.3115L32.8153 10.2556C32.7804 10.6216 32.7115 10.9922 32.6063 11.3673Z" fill="#CCCCCC"/>
<path d="M9.96954 10.0322V10.7049V13.2254H14.4019V15.2857C13.7219 15.9293 12.3116 16.5987 10.8258 16.5987C7.77859 16.5987 5.56253 14.204 5.56253 10.9594C5.56253 10.8731 5.57031 10.79 5.57344 10.7049C5.60896 9.73281 5.84531 8.84302 6.24356 8.07861C6.24494 8.07592 6.24645 8.07348 6.24783 8.07091C6.32564 7.92204 6.40974 7.77816 6.49961 7.63917C6.50488 7.63096 6.51078 7.62313 6.51605 7.61491C6.6029 7.48246 6.69465 7.35438 6.7918 7.23156C6.80322 7.21718 6.81565 7.2037 6.8272 7.18946C6.92045 7.07434 7.01722 6.96294 7.11927 6.85705C7.13859 6.83703 7.15943 6.81868 7.17901 6.79904C7.27616 6.7015 7.37569 6.60666 7.48024 6.51772C7.50949 6.49295 7.54061 6.47074 7.57049 6.44662C7.66914 6.36653 7.76905 6.28786 7.87372 6.21547C7.91439 6.18736 7.95757 6.16298 7.99911 6.13616C8.09714 6.07263 8.19516 6.00961 8.29783 5.95301C8.3518 5.92324 8.40879 5.89834 8.46401 5.87062C8.5589 5.82287 8.65316 5.77398 8.75169 5.73214C8.82009 5.70313 8.89189 5.68003 8.96192 5.65398C9.05179 5.62048 9.14053 5.58454 9.23303 5.55592C9.31838 5.52961 9.40737 5.51049 9.49473 5.48841C9.57669 5.46775 9.65689 5.44349 9.74061 5.42668C9.8483 5.40499 9.95975 5.3919 10.0702 5.37688C10.1379 5.36764 10.2036 5.35391 10.2723 5.34711C10.4533 5.32927 10.6375 5.3199 10.825 5.3199C10.8253 5.3199 10.8255 5.31977 10.8258 5.31977C11.4963 5.31977 12.1172 5.46467 12.6713 5.70955C13.1331 5.91361 13.5483 6.18724 13.9073 6.50424C14.1943 6.75784 14.4453 7.03943 14.6552 7.33551C14.7077 7.40957 14.7575 7.48452 14.8047 7.56011L17.7763 5.91207C17.3043 5.14921 16.7011 4.41894 15.9469 3.80405C15.6955 3.59909 15.4272 3.40696 15.1417 3.23075C13.9989 2.52577 12.5761 2.07516 10.8258 2.07516H10.8245C10.6728 2.07516 10.5218 2.07862 10.3719 2.08517C10.3163 2.08761 10.2616 2.09261 10.2063 2.09595C10.1119 2.10172 10.0172 2.10647 9.92373 2.11481C9.85708 2.12059 9.79144 2.12932 9.7253 2.1365C9.64421 2.14523 9.56263 2.15293 9.4823 2.16358C9.40976 2.17334 9.33834 2.18591 9.26629 2.19708C9.19337 2.2085 9.11982 2.21865 9.0474 2.23161C8.97071 2.24534 8.89515 2.26202 8.81909 2.27755C8.75294 2.29103 8.68642 2.30322 8.6209 2.31811C8.54045 2.33633 8.46138 2.35751 8.3818 2.37766C8.32193 2.39293 8.26144 2.40679 8.20194 2.42309C8.11923 2.44594 8.03777 2.47148 7.95606 2.4965C7.90146 2.51319 7.84624 2.52859 7.79214 2.54617C7.70654 2.57402 7.62232 2.6047 7.53798 2.63498C7.48928 2.65244 7.43995 2.66861 7.39163 2.68696C7.30377 2.7202 7.21754 2.75614 7.13106 2.79182C7.08789 2.80979 7.04383 2.8266 7.00091 2.84521C6.91167 2.88384 6.82393 2.92517 6.73632 2.96649C6.69779 2.98472 6.65851 3.00204 6.62022 3.02078C6.52923 3.06532 6.43986 3.11267 6.35062 3.16042C6.31761 3.178 6.28397 3.19468 6.25122 3.21278C6.15921 3.26348 6.06885 3.31674 5.97898 3.37064C5.95036 3.38784 5.92124 3.40414 5.89275 3.42172C5.80037 3.47858 5.70988 3.538 5.62001 3.59819C5.59566 3.61462 5.57068 3.63028 5.54646 3.64683C5.45383 3.71024 5.36334 3.77607 5.27347 3.84307C5.25326 3.85809 5.23268 3.87259 5.21272 3.88773C5.12047 3.95781 5.03035 4.03032 4.94111 4.10412C4.92467 4.11772 4.90785 4.13081 4.89153 4.14454C4.80003 4.22142 4.71092 4.30074 4.62293 4.38146C4.61001 4.39327 4.5967 4.40482 4.58377 4.41676C4.49378 4.50044 4.40592 4.58668 4.31957 4.67447C4.30978 4.68448 4.29974 4.69411 4.29007 4.70412C4.20184 4.79473 4.11611 4.88777 4.03202 4.98262C4.02486 4.9907 4.01758 4.99853 4.01043 5.00662C3.92483 5.1039 3.84174 5.20362 3.76053 5.30527C3.75564 5.31156 3.75049 5.31759 3.7456 5.32388C3.66301 5.42784 3.58318 5.53423 3.50562 5.64255C3.50248 5.64705 3.49921 5.65128 3.49595 5.65564C3.41725 5.76602 3.34119 5.8787 3.26764 5.99357C3.26588 5.99639 3.264 5.99922 3.26212 6.00217C3.18756 6.11883 3.1159 6.2378 3.04661 6.35909C3.04611 6.36024 3.04548 6.36127 3.04486 6.36229C2.30885 7.65496 1.88574 9.20263 1.88574 10.9594C1.88574 16.3669 5.91509 19.8691 10.8258 19.8691C13.8731 19.8691 16.2655 18.5816 17.9779 16.6244V10.0322H9.96954Z" fill="#CCCCCC"/>
<path d="M52.7822 2.35816V10.7046V19.5342H64.6688V16.3152H56.3582V12.4269H64.4926V10.7046V9.20791H56.3582V5.57711H64.6688V2.35816H52.7822Z" fill="#CCCCCC"/>
<path d="M93.8066 2.35828V9.4375C94.0127 9.1504 94.2343 8.86625 94.4855 8.58813L94.5183 8.55348C95.333 7.72028 96.2946 7.21051 97.3826 7.02262V6.19519C97.3718 6.10767 97.3647 6.01937 97.3647 5.92953C97.3647 5.83494 97.3718 5.7424 97.3826 5.65102V5.57723H97.3934C97.5567 4.49235 98.4588 3.67507 99.5693 3.67507C100.623 3.67507 101.545 4.49235 101.713 5.57723H105.693V2.35828H93.8066Z" fill="#CCCCCC"/>
<path d="M99.5621 7.24121C99.8561 7.24121 100.129 7.12288 100.347 6.93717C100.626 6.69922 100.812 6.34782 100.812 5.96292C100.812 5.82714 100.786 5.69931 100.748 5.57687C100.586 5.04746 100.107 4.66603 99.5621 4.66603C98.9884 4.66603 98.5156 5.04746 98.3563 5.57687C98.3194 5.69931 98.2939 5.82714 98.2939 5.96292C98.2939 6.34782 98.4748 6.69922 98.7553 6.93717C98.9744 7.12288 99.2524 7.24121 99.5621 7.24121Z" fill="#CCCCCC"/>
<path d="M90.6666 6.43066C91.3369 6.43066 91.9169 5.8376 91.9169 5.15238C91.9169 4.42994 91.3369 3.85548 90.6666 3.85548C89.9601 3.85548 89.3984 4.42994 89.3984 5.15238C89.3984 5.8376 89.9601 6.43066 90.6666 6.43066Z" fill="#CCCCCC"/>
<path d="M77.0665 2.07493V10.7047V16.3153V19.5342V21.4534C76.7588 23.1391 75.9069 23.9915 74.5485 23.9915H71.3233C69.9463 23.9915 69.1131 23.1391 68.8049 21.4534V21.2112H66.1416V21.2867C66.1416 23.9356 67.5549 25.6958 70.3809 26.5481L71.0876 26.6406H74.7838L75.4903 26.5481C78.3166 25.6958 79.7298 23.9543 79.7298 21.3422V2.07493H77.0665Z" fill="#CCCCCC"/>
<path d="M31.1431 5.81934L29.839 2.35859H25.3565L24.0605 5.78456C24.7531 5.1345 25.6118 4.69416 26.6476 4.49356C28.3083 4.17207 29.9555 4.69005 31.1431 5.81934Z" fill="#CCCCCC"/>
<path d="M9.39154 12.5105H13.8239V14.5708C13.1439 15.2143 11.7336 15.8839 10.2477 15.8839C7.20059 15.8839 4.98453 13.4892 4.98453 10.2445C4.98453 6.99992 7.20059 4.60493 10.2477 4.60493C12.0357 4.60493 13.4712 5.635 14.2267 6.84527L17.1983 5.19723C15.9393 3.16301 13.7482 1.36032 10.2477 1.36032C5.33697 1.36032 1.30762 4.81105 1.30762 10.2445C1.30762 15.6521 5.33697 19.1543 10.2477 19.1543C13.295 19.1543 15.6875 17.8668 17.3999 15.9096V9.31739H9.39154V12.5105Z" fill="#FAFAFA"/>
<path d="M49.3082 4.57889V1.64319H36.6914V4.86214H44.624L36.6914 15.8577V18.8193H49.4846V15.6003H41.3753L49.3082 4.57889Z" fill="#FAFAFA"/>
<path d="M52.2041 18.8193H64.0907V15.6004H55.7801V11.712H63.9144V8.49306H55.7801V4.86226H64.0907V1.64332H52.2041V18.8193Z" fill="#FAFAFA"/>
<path d="M75.2995 15.6004H70.4627V1.64332H66.8867V18.8193H75.2995V15.6004Z" fill="#FAFAFA"/>
<path d="M87.2267 15.6004H83.634V1.64332H80.3418V18.8193H87.2267V15.6004Z" fill="#FAFAFA"/>
<path d="M93.2285 1.64357V8.72266C93.4346 8.43556 93.6561 8.15153 93.9074 7.87342L93.94 7.83876C94.7548 7.00544 95.7163 6.49579 96.8045 6.3079V5.48048C96.7937 5.39295 96.7864 5.30452 96.7864 5.21481C96.7864 5.12022 96.7937 5.02769 96.8045 4.93631V4.86251H96.8153C96.9785 3.77764 97.8807 2.96036 98.9912 2.96036C100.045 2.96036 100.967 3.77764 101.135 4.86251H105.115V1.64357H93.2285Z" fill="#FAFAFA"/>
<path d="M95.5422 12.3854C95.5422 10.6994 96.8647 9.84745 99.5096 9.84745H103.949C102.97 8.27257 101.811 7.47608 100.452 7.43886H97.7707C97.433 7.43886 97.1122 7.47787 96.8045 7.54743C96.0382 7.72057 95.3627 8.1038 94.7811 8.69853C94.0114 9.55034 93.4938 10.439 93.2283 11.3687C93.1129 11.7737 93.0401 12.1858 93.0238 12.6074V16.1277H92.5166H91.8277H91.2845V14.9114V7.40164C89.6175 8.01332 88.7843 8.99513 88.7843 10.3289L88.7661 19.9626C88.7661 21.6482 87.6065 22.5006 85.2875 22.5006H81.9355C82.9139 24.0381 84.0734 24.8347 85.4322 24.8721H86.5376C88.5485 24.8721 90.0886 23.6491 91.1394 21.1851L91.2845 20.1662V19.9744V18.7584H91.8277H92.5166H93.2283H93.8673H104.836V16.1277H95.5422V12.3854Z" fill="white"/>
<path d="M98.9851 6.52637C99.2791 6.52637 99.552 6.40804 99.7698 6.2222C100.049 5.98425 100.235 5.63298 100.235 5.24808C100.235 5.11229 100.209 4.98447 100.171 4.86203C100.009 4.33262 99.5297 3.95118 98.9851 3.95118C98.4114 3.95118 97.9386 4.33262 97.7793 4.86203C97.7423 4.98447 97.7168 5.11229 97.7168 5.24808C97.7168 5.63298 97.8978 5.98425 98.1783 6.2222C98.3972 6.40804 98.6753 6.52637 98.9851 6.52637Z" fill="white"/>
<path d="M90.0885 5.71582C90.7587 5.71582 91.3386 5.12275 91.3386 4.43753C91.3386 3.7151 90.7587 3.14064 90.0885 3.14064C89.382 3.14064 88.8203 3.7151 88.8203 4.43753C88.8203 5.12275 89.382 5.71582 90.0885 5.71582Z" fill="white"/>
<path d="M76.4892 15.6004V18.8194V20.7386C76.1815 22.4242 75.3298 23.2765 73.9712 23.2765H70.7461C69.369 23.2765 68.536 22.4242 68.2277 20.7386V20.4964H65.5645V20.5719C65.5645 23.2207 66.9776 24.9808 69.8038 25.8331L70.5104 25.9258H74.2065L74.9132 25.8331C77.7394 24.9808 79.1525 23.2395 79.1525 20.6273V1.36009H76.4892V15.6004Z" fill="white"/>
<path d="M24.6965 9.02999C24.6799 10.249 25.6146 11.3924 26.9614 11.4223C28.2554 11.4509 29.3101 10.3891 29.3183 9.0862C29.3267 7.77096 28.3024 6.70122 27.026 6.6925C25.7548 6.68364 24.7142 7.73502 24.6965 9.02999Z" fill="white"/>
<path d="M26.0705 3.77872C27.7311 3.45722 29.3784 3.97521 30.566 5.10449L29.2619 1.64375H24.7794L23.4834 5.06971C24.1761 4.41966 25.0347 3.97932 26.0705 3.77872Z" fill="#FAFAFA"/>
<path d="M26.3116 18.0563C25.4962 16.7412 24.6747 15.43 23.8708 14.1076C23.339 13.233 22.8304 12.3435 22.3168 11.4575C22.0503 10.9974 21.921 10.4857 21.8335 9.9654C21.8113 9.83334 21.7941 9.70179 21.7808 9.5705L18.2822 18.8193H22.3619H26.7908C26.6287 18.563 26.4684 18.3096 26.3116 18.0563Z" fill="#FAFAFA"/>
<path d="M32.2372 9.54085C32.2024 9.90688 32.1335 10.2774 32.0282 10.6524C31.8848 11.1637 31.6243 11.612 31.3635 12.062C30.0378 14.3487 28.6313 16.5836 27.2256 18.8193H31.6538H35.7335L32.2372 9.54085Z" fill="#FAFAFA"/>
<mask id="mask1_20_12267" style="mask-type:luminance" maskUnits="userSpaceOnUse" x="1" y="1" width="105" height="9">
<path d="M1.31348 1.35954H105.115V9.98926H1.31348V1.35954Z" fill="white"/>
</mask>
<g mask="url(#mask1_20_12267)">
<g opacity="0.300003">
<path d="M9.3916 9.98926H17.4V9.31662H9.3916V9.98926Z" fill="white"/>
<path d="M4.99528 9.99023C5.10912 6.87691 7.2815 4.60526 10.2476 4.60526C12.0357 4.60526 13.4711 5.6352 14.2267 6.84547L17.1983 5.19743C15.9392 3.16321 13.7481 1.36052 10.2476 1.36052C5.41449 1.36052 1.43799 4.7046 1.31348 9.99023H4.99528Z" fill="white"/>
<path d="M40.9239 9.98926H45.4127L49.3073 4.57849V1.64279H36.6904V4.86174H44.6231L40.9239 9.98926Z" fill="white"/>
<path d="M63.9144 9.98926V8.49253H55.78V4.86174H64.0906V1.64279H52.2041V9.98926H63.9144Z" fill="white"/>
<path d="M70.4627 1.64279H66.8867V9.98926H70.4627V1.64279Z" fill="white"/>
<path d="M83.633 1.64279H80.3408V9.98926H83.633V1.64279Z" fill="white"/>
<path d="M93.2285 1.64357V8.72266C93.4346 8.43556 93.6561 8.15153 93.9074 7.87342L93.94 7.83876C94.7548 7.00544 95.7163 6.49579 96.8045 6.3079V5.48048C96.7937 5.39295 96.7864 5.30452 96.7864 5.21481C96.7864 5.12022 96.7937 5.02769 96.8045 4.93631V4.86251H96.8153C96.9785 3.77764 97.8807 2.96036 98.9912 2.96036C100.045 2.96036 100.967 3.77764 101.135 4.86251H105.115V1.64357H93.2285Z" fill="white"/>
<path d="M97.8676 9.98926C98.3428 9.89557 98.8883 9.8468 99.5093 9.8468H103.948C102.97 8.27191 101.81 7.47542 100.452 7.4382H97.7704C97.4327 7.4382 97.1119 7.47722 96.8039 7.54678C96.038 7.71991 95.3624 8.10314 94.7806 8.69788C94.4001 9.1191 94.0815 9.54943 93.8242 9.98926H97.8676Z" fill="white"/>
<path d="M91.2847 9.98926V7.40098C89.7625 7.9594 88.938 8.82751 88.8057 9.98926H91.2847Z" fill="white"/>
<path d="M98.9841 6.52637C99.2781 6.52637 99.5511 6.40804 99.7688 6.2222C100.048 5.98425 100.234 5.63298 100.234 5.24808C100.234 5.11229 100.208 4.98447 100.17 4.86203C100.008 4.33262 99.5287 3.95118 98.9841 3.95118C98.4104 3.95118 97.9376 4.33262 97.7783 4.86203C97.7413 4.98447 97.7158 5.11229 97.7158 5.24808C97.7158 5.63298 97.8968 5.98425 98.1773 6.2222C98.3962 6.40804 98.6744 6.52637 98.9841 6.52637Z" fill="white"/>
<path d="M90.0885 5.71582C90.7587 5.71582 91.3386 5.12275 91.3386 4.43753C91.3386 3.7151 90.7587 3.14064 90.0885 3.14064C89.382 3.14064 88.8203 3.7151 88.8203 4.43753C88.8203 5.12275 89.382 5.71582 90.0885 5.71582Z" fill="white"/>
<path d="M79.1516 1.35954H76.4883V9.98926H79.1516V1.35954Z" fill="white"/>
<path d="M29.1343 9.98926C29.2505 9.71101 29.3163 9.40594 29.3183 9.08599C29.3267 7.77074 28.3024 6.70101 27.026 6.69228C25.7548 6.68342 24.7142 7.7348 24.6965 9.02977C24.692 9.36256 24.7605 9.68881 24.887 9.98926H29.1343Z" fill="white"/>
<path d="M26.0695 3.77872C27.7302 3.45722 29.3774 3.97521 30.565 5.10449L29.2609 1.64375H24.7785L23.4824 5.06971C24.1751 4.41966 25.0338 3.97932 26.0695 3.77872Z" fill="white"/>
</g>
</g>
</g>
</svg>
