<svg width="19" height="19" viewBox="0 0 19 19" fill="none" xmlns="http://www.w3.org/2000/svg">
<g clip-path="url(#clip0_7_5216)">
<path fill-rule="evenodd" clip-rule="evenodd" d="M17.3647 16.9739L12.6963 12.3054L13.2932 11.7085C13.6266 11.3751 14.07 11.1914 14.5416 11.1914C15.0132 11.1914 15.4565 11.3751 15.7899 11.7085L17.9617 13.8802C18.295 14.2136 18.4787 14.657 18.4787 15.1286C18.4787 15.6003 18.295 16.0435 17.9617 16.3769L17.3647 16.9739Z" fill="white" fill-opacity="0.8"/>
<path fill-rule="evenodd" clip-rule="evenodd" d="M2.02637 1.6355L2.62328 1.03857C2.95669 0.7052 3.40007 0.521484 3.87165 0.521484C4.34324 0.521484 4.78662 0.7052 5.12004 1.03857L7.29184 3.21027C7.9801 3.8985 7.9801 5.01859 7.29184 5.70703L6.69493 6.30396L2.02637 1.6355Z" fill="white" fill-opacity="0.8"/>
<path fill-rule="evenodd" clip-rule="evenodd" d="M16.5433 17.7563C14.9681 19.0617 12.9427 19.3466 10.6479 18.5747C8.6821 17.9134 6.50746 16.4574 4.52473 14.4746C2.542 12.4919 1.08579 10.3173 0.424611 8.35129C-0.347256 6.0567 -0.0623354 4.03124 1.243 2.45605L5.93401 7.14705C4.92599 8.71841 6.37541 10.5785 7.39808 11.6012C8.4209 12.6238 10.281 14.0734 11.8522 13.0653L16.5433 17.7563Z" fill="white" fill-opacity="0.8"/>
</g>
<defs>
<clipPath id="clip0_7_5216">
<rect width="18.4784" height="18.4783" fill="white" transform="translate(0 0.521484)"/>
</clipPath>
</defs>
</svg>
