<svg width="184" height="185" viewBox="0 0 184 185" fill="none" xmlns="http://www.w3.org/2000/svg">
<g filter="url(#filter0_d_4_259)">
<g filter="url(#filter1_ii_4_259)">
<rect x="57.7441" y="0.916992" width="100" height="100" rx="22.4532" transform="rotate(15.963 57.7441 0.916992)" fill="url(#paint0_linear_4_259)"/>
<rect x="57.7441" y="0.916992" width="100" height="100" rx="22.4532" transform="rotate(15.963 57.7441 0.916992)" fill="url(#paint1_linear_4_259)" fill-opacity="0.2" style="mix-blend-mode:soft-light"/>
</g>
<path d="M100.151 34.751L116.632 34.751C118.149 34.751 119.605 35.3538 120.678 36.4269C121.751 37.5 122.354 38.9554 122.354 40.4729L100.151 40.4729L100.151 34.751Z" fill="#963545"/>
<path d="M93.3138 83.4121C92.4912 82.9459 91.5632 82.6974 90.6177 82.6901C89.6723 82.6828 88.7406 82.917 87.9109 83.3705L72.216 91.9508C71.8486 92.1516 71.4353 92.2534 71.0167 92.2461C70.5981 92.2388 70.1885 92.1226 69.8284 91.9091C69.4683 91.6955 69.1699 91.3919 68.9627 91.0281C68.7555 90.6643 68.6465 90.2528 68.6465 89.8342L68.6465 40.2207C68.6465 37.3042 71.1996 34.751 74.1162 34.751L116.767 34.751C116.073 34.751 115.387 34.8875 114.746 35.1529C114.105 35.4183 113.523 35.8073 113.033 36.2977C112.542 36.788 112.153 37.3702 111.888 38.0109C111.623 38.6516 111.486 39.3383 111.486 40.0318L111.486 89.573C111.486 89.9949 111.375 90.4093 111.165 90.775C110.955 91.1407 110.653 91.445 110.288 91.6573C109.924 91.8697 109.51 91.9827 109.088 91.9852C108.666 91.9877 108.251 91.8796 107.884 91.6716L93.3138 83.4121Z" fill="#FBC3CD"/>
<path d="M88.5439 83.0751C88.3269 83.1602 88.1155 83.2589 87.9109 83.3707L72.216 91.9509C71.8486 92.1517 71.4353 92.2535 71.0167 92.2461C70.598 92.2388 70.1885 92.1226 69.8284 91.9091C69.4683 91.6955 69.1699 91.3919 68.9627 91.0281C68.7555 90.6643 68.6465 90.2528 68.6465 89.8342L68.6465 40.2207C68.6465 37.3042 71.1995 34.751 74.1162 34.751L76.8156 34.751C73.8568 34.751 71.7208 38.3894 71.7208 40.55L71.7208 88.3558C71.73 89.0503 72.0048 89.5288 72.6901 89.3251L88.5439 83.0746L88.5439 83.0751Z" fill="#963545"/>
<path d="M90.9269 48.7526L93.2246 55.8241C93.2987 56.0522 93.4431 56.251 93.6372 56.392C93.8312 56.533 94.0649 56.6089 94.3048 56.6089L101.74 56.6089C101.98 56.6089 102.214 56.6849 102.408 56.8259C102.602 56.9668 102.746 57.1656 102.82 57.3937C102.894 57.6219 102.894 57.8676 102.82 58.0957C102.746 58.3238 102.602 58.5226 102.408 58.6636L96.3925 63.034C96.1984 63.1749 96.054 63.3737 95.9799 63.6019C95.9057 63.83 95.9057 64.0757 95.9799 64.3038L98.2772 71.3752C98.3513 71.6033 98.3512 71.849 98.2771 72.0771C98.203 72.3053 98.0585 72.504 97.8645 72.645C97.6704 72.786 97.4368 72.8619 97.1969 72.862C96.957 72.862 96.7233 72.786 96.5293 72.6451L90.5141 68.2747C90.32 68.1338 90.0863 68.0578 89.8464 68.0578C89.6066 68.0578 89.3729 68.1338 89.1788 68.2747L83.1636 72.6451C82.9695 72.786 82.7358 72.862 82.496 72.862C82.2561 72.8619 82.0224 72.786 81.8284 72.645C81.6343 72.504 81.4899 72.3053 81.4158 72.0771C81.3416 71.849 81.3416 71.6033 81.4157 71.3752L83.7134 64.3038C83.7875 64.0757 83.7875 63.83 83.7134 63.6019C83.6393 63.3738 83.4949 63.175 83.3008 63.034L77.2856 58.6636C77.0915 58.5226 76.9471 58.3238 76.873 58.0957C76.7988 57.8676 76.7989 57.6218 76.873 57.3937C76.9471 57.1656 77.0916 56.9668 77.2856 56.8258C77.4797 56.6848 77.7134 56.6089 77.9533 56.6089L85.3885 56.6089C85.6284 56.609 85.8621 56.533 86.0562 56.392C86.2502 56.251 86.3946 56.0522 86.4688 55.8241L88.7664 48.7526C88.8405 48.5245 88.985 48.3257 89.179 48.1847C89.3731 48.0437 89.6068 47.9678 89.8467 47.9678C90.0865 47.9678 90.3203 48.0437 90.5143 48.1847C90.7084 48.3257 90.8528 48.5245 90.9269 48.7526Z" fill="#963545"/>
<path d="M82.8852 72.796C82.685 72.8683 82.4685 72.8829 82.2604 72.8382C82.0523 72.7936 81.8609 72.6915 81.7079 72.5435C81.555 72.3955 81.4466 72.2075 81.3951 72.001C81.3437 71.7945 81.3511 71.5777 81.4167 71.3752L83.7143 64.3038C83.7884 64.0757 83.7884 63.83 83.7143 63.6019C83.6402 63.3738 83.4958 63.175 83.3017 63.034L77.2865 58.6636C77.0925 58.5226 76.948 58.3238 76.8739 58.0957C76.7998 57.8675 76.7998 57.6218 76.874 57.3937C76.9481 57.1656 77.0925 56.9668 77.2866 56.8258C77.4806 56.6848 77.7143 56.6089 77.9542 56.6088L85.3894 56.6088C85.6293 56.6089 85.863 56.5329 86.057 56.392C86.2511 56.251 86.3955 56.0522 86.4696 55.8241L88.7673 48.7526C88.8386 48.5228 88.9823 48.3221 89.177 48.1807C89.3717 48.0393 89.6069 47.9646 89.8475 47.9679L87.2184 56.043C87.0886 56.442 86.8358 56.7895 86.4964 57.036C86.1569 57.2825 85.7481 57.4152 85.3286 57.4151L78.1291 57.4151C77.7027 57.4151 77.5184 57.8658 77.9562 58.2053L83.7957 62.4274C84.0947 62.6434 84.3183 62.9477 84.4352 63.2975C84.5521 63.6474 84.5564 64.025 84.4474 64.3774L82.2034 71.6384C82.0368 72.1369 82.3377 72.7526 82.8852 72.796Z" fill="#0E55A9"/>
</g>
<defs>
<filter id="filter0_d_4_259" x="0.670898" y="1.34473" width="182.789" height="182.79" filterUnits="userSpaceOnUse" color-interpolation-filters="sRGB">
<feFlood flood-opacity="0" result="BackgroundImageFix"/>
<feColorMatrix in="SourceAlpha" type="matrix" values="0 0 0 0 0 0 0 0 0 0 0 0 0 0 0 0 0 0 127 0" result="hardAlpha"/>
<feOffset dy="30"/>
<feGaussianBlur stdDeviation="17.5"/>
<feColorMatrix type="matrix" values="0 0 0 0 0.0980392 0 0 0 0 0.631373 0 0 0 0 0.658824 0 0 0 0.43 0"/>
<feBlend mode="normal" in2="BackgroundImageFix" result="effect1_dropShadow_4_259"/>
<feBlend mode="normal" in="SourceGraphic" in2="effect1_dropShadow_4_259" result="shape"/>
</filter>
<filter id="filter1_ii_4_259" x="34.8648" y="5.53866" width="114.401" height="114.402" filterUnits="userSpaceOnUse" color-interpolation-filters="sRGB">
<feFlood flood-opacity="0" result="BackgroundImageFix"/>
<feBlend mode="normal" in="SourceGraphic" in2="BackgroundImageFix" result="shape"/>
<feColorMatrix in="SourceAlpha" type="matrix" values="0 0 0 0 0 0 0 0 0 0 0 0 0 0 0 0 0 0 127 0" result="hardAlpha"/>
<feOffset dx="0.806063" dy="0.806063"/>
<feGaussianBlur stdDeviation="0.403031"/>
<feComposite in2="hardAlpha" operator="arithmetic" k2="-1" k3="1"/>
<feColorMatrix type="matrix" values="0 0 0 0 1 0 0 0 0 1 0 0 0 0 1 0 0 0 0.2 0"/>
<feBlend mode="normal" in2="shape" result="effect1_innerShadow_4_259"/>
<feColorMatrix in="SourceAlpha" type="matrix" values="0 0 0 0 0 0 0 0 0 0 0 0 0 0 0 0 0 0 127 0" result="hardAlpha"/>
<feOffset dx="-0.806063" dy="-0.806063"/>
<feGaussianBlur stdDeviation="0.403031"/>
<feComposite in2="hardAlpha" operator="arithmetic" k2="-1" k3="1"/>
<feColorMatrix type="matrix" values="0 0 0 0 0 0 0 0 0 0 0 0 0 0 0 0 0 0 0.05 0"/>
<feBlend mode="normal" in2="effect1_innerShadow_4_259" result="effect2_innerShadow_4_259"/>
</filter>
<linearGradient id="paint0_linear_4_259" x1="107.744" y1="0.916992" x2="107.744" y2="100.917" gradientUnits="userSpaceOnUse">
<stop stop-color="#E2667A"/>
<stop offset="1" stop-color="#DB5F73"/>
</linearGradient>
<linearGradient id="paint1_linear_4_259" x1="107.744" y1="0.916992" x2="107.744" y2="100.917" gradientUnits="userSpaceOnUse">
<stop offset="0.328125" stop-color="white"/>
<stop offset="1" stop-opacity="0.1"/>
</linearGradient>
</defs>
</svg>
