<svg width="17" height="16" viewBox="0 0 17 16" fill="none" xmlns="http://www.w3.org/2000/svg">
<g clip-path="url(#clip0_7_5162)">
<path fill-rule="evenodd" clip-rule="evenodd" d="M8.20059 0.0078125C9.23959 0.0449219 10.3157 0.0449219 11.3547 0.0820284C12.2824 0.119134 13.1358 0.267564 13.9522 0.749956C14.9912 1.38078 15.622 2.30846 15.8446 3.49588C15.956 4.20092 15.9931 4.94306 16.0302 5.6481C16.0673 7.2066 16.0302 8.7651 16.0302 10.3236C16.0302 11.14 15.9931 11.9563 15.7333 12.7356C15.2138 14.257 14.1377 15.1846 12.5792 15.4815C11.8742 15.6299 11.132 15.6299 10.427 15.667C8.86851 15.7041 7.34713 15.667 5.78862 15.667C4.97227 15.667 4.15591 15.6299 3.37667 15.3702C1.85527 14.8507 0.927595 13.7746 0.630737 12.2161C0.482311 11.511 0.482311 10.7689 0.445204 10.0638C0.408095 8.50535 0.445204 6.94685 0.445204 5.38835C0.445204 4.57199 0.482311 3.75564 0.742059 2.97638C1.26156 1.45499 2.33767 0.527316 3.89616 0.230457C4.6012 0.0820332 5.34334 0.0820332 6.04838 0.0449219C6.75341 0.0078125 7.45844 0.0078125 8.20059 0.0078125ZM14.6201 7.689C14.583 7.689 14.6201 7.689 14.6201 7.689C14.583 7.05817 14.583 6.46446 14.583 5.83364C14.583 5.23993 14.5459 4.64621 14.4717 4.05249C14.3233 2.71663 13.544 1.82606 12.2453 1.56631C11.5773 1.41789 10.8352 1.41789 10.1673 1.41789C8.83141 1.38078 7.53266 1.38078 6.19681 1.41789C5.52888 1.41789 4.86095 1.45499 4.23013 1.56631C3.11691 1.75185 2.33767 2.38267 2.0037 3.49588C1.89238 3.86696 1.85528 4.23803 1.81817 4.6091C1.78106 6.01917 1.78106 7.42924 1.78106 8.83931C1.78106 9.72989 1.81817 10.6576 1.89238 11.5481C2.0037 12.884 2.82006 13.8117 4.15592 14.0343C4.82384 14.1456 5.52888 14.1827 6.23391 14.1827C7.53266 14.2199 8.83141 14.1827 10.1673 14.1827C10.761 14.1827 11.3547 14.1456 11.9484 14.0714C12.505 14.0343 13.0245 13.8488 13.4698 13.4777C14.2119 12.884 14.4717 12.1047 14.5088 11.2142C14.583 10.101 14.583 8.91353 14.6201 7.689Z" fill="white"/>
<path fill-rule="evenodd" clip-rule="evenodd" d="M12.2075 7.83765C12.2075 10.0641 10.4264 11.8452 8.19995 11.8452C5.97352 11.8452 4.19238 10.0641 4.19238 7.80055C4.19238 5.61122 6.01063 3.83008 8.23706 3.83008C10.4264 3.83008 12.2075 5.61122 12.2075 7.83765ZM8.19995 10.4352C9.61002 10.4352 10.7974 9.24772 10.7974 7.83765C10.7974 6.42758 9.61002 5.24015 8.19995 5.24015C6.75278 5.24015 5.60245 6.42758 5.60245 7.83765C5.56535 9.24772 6.75278 10.4352 8.19995 10.4352Z" fill="white"/>
<path d="M13.2843 3.64447C13.2843 4.16397 12.8761 4.60926 12.3566 4.60926C11.8371 4.60926 11.3918 4.16397 11.4289 3.64447C11.4289 3.12498 11.8371 2.7168 12.3566 2.7168C12.8761 2.7168 13.2843 3.12497 13.2843 3.64447Z" fill="white"/>
</g>
<defs>
<clipPath id="clip0_7_5162">
<rect width="15.618" height="15.6757" fill="white" transform="translate(0.428711 0.0078125)"/>
</clipPath>
</defs>
</svg>
